<?xml version="1.0" encoding="utf-8"?>

<svg version="1.1" id="Layer_1" xmlns="http://www.w3.org/2000/svg" xmlns:xlink="http://www.w3.org/1999/xlink" x="0px" y="0px"
	 viewBox="0 0 64 64" style="enable-background:new 0 0 64 64;" xml:space="preserve">
<style type="text/css">
	.st0{fill:#020202;}
</style>
<path class="st0" d="M18,3.5c-0.8,0-1.5,0.7-1.5,1.5s0.7,1.5,1.5,1.5s1.5-0.7,1.5-1.5S18.8,3.5,18,3.5z M18,5.5
	c-0.3,0-0.5-0.2-0.5-0.5s0.2-0.5,0.5-0.5s0.5,0.2,0.5,0.5S18.3,5.5,18,5.5z"/>
<circle cx="22" cy="5" r="1"/>
<circle cx="14" cy="5" r="1"/>
<path d="M63,22h-0.4c-1.4,0-2.6,1-2.9,2.4l-1.1,5.1H22.9l-2-4c-0.3-0.5-0.9-0.6-1.4-0.3c-0.4,0.3-0.6,0.8-0.4,1.2l9.5,18.9
	c-1.4,0.8-2,2.6-1.2,4.1c0.5,0.9,1.5,1.5,2.6,1.5h6.6c-0.4,0.6-0.6,1.3-0.6,2c0,2.2,1.8,4,4,4s4-1.8,4-4c0-0.7-0.2-1.4-0.6-2h5.1
	c-0.4,0.6-0.6,1.3-0.6,2c0,2.2,1.8,4,4,4s4-1.8,4-4c0-0.7-0.2-1.4-0.6-2H56c1.7,0,3-1.4,3-3c0-1.2-0.7-2.3-1.8-2.7l4.4-20.5
	c0.1-0.5,0.5-0.8,1-0.8H63c0.6,0,1-0.4,1-1S63.6,22,63,22z M38.4,45l-0.8-6.5h10.9V45H38.4z M37.4,45h-6.8l-3.2-6.5h9.2L37.4,45z
	 M37.5,37.5l-0.9-7h11.9v7H37.5z M49.5,38.5h7.1L55.2,45h-5.7L49.5,38.5z M56.8,37.5h-7.3v-7h8.8L56.8,37.5z M35.6,30.5l0.9,7h-9.6
	l-3.5-7H35.6z M42,53c0,1.1-0.9,2-2,2s-2-0.9-2-2s0.9-2,2-2S42,51.9,42,53z M54,53c0,1.1-0.9,2-2,2s-2-0.9-2-2s0.9-2,2-2
	S54,51.9,54,53z M56,49H30c-0.6,0-1-0.4-1-1s0.4-1,1-1h26c0.6,0,1,0.4,1,1S56.6,49,56,49z"/>
<circle cx="40" cy="53" r="1"/>
<circle cx="52" cy="53" r="1"/>
<path d="M34,55c-0.6,0-1,0.4-1,1v3c0,1.7-1.3,3-3,3H6c-1.7,0-3-1.3-3-3V5.5h3c1,0,2,0.5,2.6,1.3c0.8,1,2,1.6,3.4,1.7h12
	c1.3,0,2.5-0.6,3.4-1.7C28,6,29,5.5,30,5.5h3V26c0,0.6,0.4,1,1,1s1-0.4,1-1V5c0-2.8-2.2-5-5-5H6C3.2,0,1,2.2,1,5v4c-0.6,0-1,0.4-1,1
	v4c0,0.6,0.4,1,1,1v2c-0.6,0-1,0.4-1,1v4c0,0.6,0.4,1,1,1v36c0,2.8,2.2,5,5,5h24c2.8,0,5-2.2,5-5v-3C35,55.4,34.6,55,34,55z
	 M26.6,6.2C26,7,25,7.5,24,7.5H12c-1,0-2-0.5-2.6-1.3c-0.8-1-2-1.6-3.4-1.7H3C3.3,3.1,4.5,2,6,2h24c1.5,0,2.8,1,3,2.5h-3
	C28.7,4.5,27.5,5.1,26.6,6.2z"/>
</svg>
