<?xml version="1.0" encoding="utf-8"?>
<svg version="1.1" xmlns="http://www.w3.org/2000/svg" xmlns:xlink="http://www.w3.org/1999/xlink" x="0px" y="0px"
	 viewBox="0 0 500 500" style="enable-background:new 0 0 500 500;" xml:space="preserve">
<style type="text/css">
	.st0{fill:#F5F5F5;}
	.st1{fill:#E0E0E0;}
	.st2{fill:#27DEBF;}
	.st3{opacity:0.3;}
	.st4{fill:#FFFFFF;}
	.st5{opacity:0.15;}
	.st6{fill:#37474F;}
	.st7{fill:#455A64;}
	.st8{fill:#263238;}
	.st9{fill:#FAFAFA;}
	.st10{opacity:0.5;fill:#FFFFFF;}
	.st11{opacity:0.4;}
	.st12{opacity:0.2;}
	.st13{opacity:0.1;}
	.st14{fill:#EBEBEB;}
	.st15{opacity:0.7;}
	.st16{opacity:0.8;fill:#FFFFFF;}
	.st17{opacity:0.1;fill:#27DEBF;}
	.st18{opacity:0.05;}
	.st19{opacity:0.2;fill:#27DEBF;}
	.st20{opacity:0.5;}
	.st21{opacity:0.6;fill:#FFFFFF;}
	.st22{opacity:0.4;fill:#27DEBF;}
	.st23{opacity:0.35;fill:#FFFFFF;}
	.st24{fill:#F0F0F0;}
	.st25{opacity:0.4;fill:#FFFFFF;}
	.st26{opacity:0.25;}
</style>
<g id="Floor">
	<ellipse id="Floor_15_" class="st0" cx="250" cy="345.8" rx="223.4" ry="131.22"/>
</g>
<g id="Shadows_1_">
	<path id="Shadow_28_" class="st1" d="M93.97,345.91c12.93,7.46,12.93,19.56,0,27.03s-33.89,7.46-46.81,0
		c-12.93-7.46-12.93-19.56,0-27.03C60.08,338.44,81.04,338.44,93.97,345.91z"/>
	<path id="Shadow_2_" class="st1" d="M122.34,363.06l117.26,67.7c2.39,1.38,6.27,1.38,8.66,0l198.5-114.61c2.39-1.38,2.39-3.62,0-5
		l-117.26-67.7c-2.39-1.38-6.27-1.38-8.66,0l-198.5,114.61C119.94,359.44,119.94,361.68,122.34,363.06z"/>
</g>
<g id="Plants">
	<g id="Plants_2_">
		<g id="XMLID_1019_">
			<g id="XMLID_1079_">
				<path id="XMLID_1101_" class="st2" d="M418.28,291.88l-8.17-4.72c0,0-4.86-20.2-2.92-38.38c2.72-25.56,16.48-36.69,25.95-32.97
					c6.3,2.48,8.25,9.64-2.34,24.86C424.55,249.65,416.88,268.35,418.28,291.88z"/>
			</g>
			<g id="XMLID_1073_" class="st3">
				<path id="XMLID_1078_" d="M418.28,291.88l-8.17-4.72c0,0-4.86-20.2-2.92-38.38c2.72-25.56,16.48-36.69,25.95-32.97
					c6.3,2.48,8.25,9.64-2.34,24.86C424.55,249.65,416.88,268.35,418.28,291.88z"/>
			</g>
			<g id="XMLID_1029_">
				<path id="XMLID_1072_" class="st4" d="M414.89,281.95c0.03,0,0.05,0,0.08-0.01c0.31-0.06,0.51-0.35,0.45-0.66
					c-4.48-23.57,3.76-50.07,13.96-61.09c0.21-0.23,0.2-0.59-0.03-0.8c-0.23-0.21-0.59-0.2-0.8,0.03
					c-10.38,11.22-18.78,38.15-14.24,62.07C414.36,281.77,414.61,281.97,414.89,281.95z"/>
			</g>
		</g>
		<g id="XMLID_918_">
			<g id="XMLID_943_">
				<path id="XMLID_991_" class="st2" d="M439.68,304.24c1.29,0.66,4.72-2.28,5.68-3c1.64-1.22,2.93-2.9,3.75-4.77
					c0.95-2.17,1.11-4.46,0.66-6.79c-0.23-1.21-0.63-2.38-1.03-3.54c-0.39-1.14-0.78-2.28-1.18-3.43c-0.39-1.13-0.78-2.29-0.69-3.48
					c0.18-2.39,2.21-4.17,4.06-5.7c2.04-1.7,4.15-3.91,3.99-6.77c-0.12-2.21-1.37-4.2-2.82-5.87c-1.46-1.66-3.16-3.11-4.49-4.88
					c-0.96-1.27-1.73-2.79-1.67-4.38c0.04-0.99,0.4-1.94,0.83-2.83c0.92-1.92,2.16-3.69,2.76-5.73c0.6-2.04,0.37-4.52-1.26-5.88
					c-1.34-1.11-3.26-1.18-4.99-0.98c-1.6,0.19-3.13,0.99-4.5,1.84c-4.42,2.76-6.74,8.27-11.47,10.46
					c-1.82,0.84-3.85,1.11-5.77,1.72c-1.91,0.61-3.84,1.7-4.65,3.54c-1.59,3.63,1.91,7.82,0.86,11.63c-0.93,3.38-4.1,4.81-5.76,7.9
					c-0.73,1.35-0.83,2.87-0.63,4.39c0.35,2.57,0.82,4.45,2.2,7.26c1.14,2.32,4.36,6.71,4.36,6.71S439.48,304.14,439.68,304.24z"/>
			</g>
			<g id="XMLID_926_" class="st5">
				<path id="XMLID_941_" d="M439.68,304.24c1.29,0.66,4.72-2.28,5.68-3c1.64-1.22,2.93-2.9,3.75-4.77
					c0.95-2.17,1.11-4.46,0.66-6.79c-0.23-1.21-0.63-2.38-1.03-3.54c-0.39-1.14-0.78-2.28-1.18-3.43c-0.39-1.13-0.78-2.29-0.69-3.48
					c0.18-2.39,2.21-4.17,4.06-5.7c2.04-1.7,4.15-3.91,3.99-6.77c-0.12-2.21-1.37-4.2-2.82-5.87c-1.46-1.66-3.16-3.11-4.49-4.88
					c-0.96-1.27-1.73-2.79-1.67-4.38c0.04-0.99,0.4-1.94,0.83-2.83c0.92-1.92,2.16-3.69,2.76-5.73c0.6-2.04,0.37-4.52-1.26-5.88
					c-1.34-1.11-3.26-1.18-4.99-0.98c-1.6,0.19-3.13,0.99-4.5,1.84c-4.42,2.76-6.74,8.27-11.47,10.46
					c-1.82,0.84-3.85,1.11-5.77,1.72c-1.91,0.61-3.84,1.7-4.65,3.54c-1.59,3.63,1.91,7.82,0.86,11.63c-0.93,3.38-4.1,4.81-5.76,7.9
					c-0.73,1.35-0.83,2.87-0.63,4.39c0.35,2.57,0.82,4.45,2.2,7.26c1.14,2.32,4.36,6.71,4.36,6.71S439.48,304.14,439.68,304.24z"/>
			</g>
			<g id="XMLID_924_">
				<path id="XMLID_925_" class="st4" d="M427.17,297.72c0.01,0,0.02,0,0.02,0c0.32-0.03,0.55-0.31,0.52-0.62
					c-2.07-22.42,7.27-47.76,14.6-55.36c0.22-0.22,0.21-0.58-0.01-0.8c-0.23-0.22-0.58-0.21-0.8,0.01
					c-7.48,7.75-17.01,33.51-14.92,56.25C426.61,297.51,426.87,297.73,427.17,297.72z"/>
			</g>
			<g id="XMLID_922_">
				<path id="XMLID_923_" class="st4" d="M429.4,270.07c0.06,0,0.11-0.01,0.17-0.03c7.11-2.6,16.08-3.44,16.17-3.45
					c0.31-0.03,0.54-0.31,0.51-0.62c-0.03-0.31-0.28-0.55-0.62-0.51c-0.09,0.01-9.21,0.87-16.46,3.52
					c-0.29,0.11-0.45,0.43-0.34,0.73C428.93,269.94,429.16,270.08,429.4,270.07z"/>
			</g>
		</g>
	</g>
</g>
<g id="Device">
	<g id="Laptop_1_">
		<path id="XMLID_611_" class="st6" d="M126.34,350.62c0,2.96,2.22,6.64,4.95,8.21l107.69,62.19c2.73,1.58,7.16,1.58,9.89,0
			L438.5,311.53c2.73-1.58,4.95-5.25,4.95-8.21c0-2.96-2.21-6.64-4.95-8.21l-107.69-62.19c-2.73-1.58-7.16-1.58-9.89,0L131.29,342.4
			C128.56,343.98,126.34,347.66,126.34,350.62z"/>
		<path id="XMLID_5480_" class="st7" d="M131.29,348.11l107.69,62.19c2.73,1.58,7.16,1.58,9.89,0L438.5,300.82
			c2.73-1.58,2.73-4.13,0-5.71l-107.69-62.19c-2.73-1.58-7.16-1.58-9.89,0L131.29,342.4C128.56,343.98,128.56,346.54,131.29,348.11z
			"/>
		<path id="XMLID_5466_" class="st8" d="M243.93,411.49v10.7c-1.79,0-3.59-0.39-4.95-1.18l-107.69-62.19
			c-2.73-1.58-4.95-5.25-4.95-8.21c0-2.78,1.95-6.18,4.44-7.89c-2.22,1.59-2.04,3.92,0.5,5.39l107.69,62.19
			C240.34,411.09,242.14,411.49,243.93,411.49z"/>
		<path id="XMLID_609_" class="st6" d="M121.7,342.58c-2.56-1.48-2.42-3.98-2.42-7.13l0-148.75c0-3.15,2.21-6.99,4.95-8.57
			L313.86,68.65c2.73-1.58,7.02-1.66,9.59-0.18c2.56,1.48,2.42,3.98,2.42,7.13v148.75c0,3.15-2.21,6.99-4.95,8.57L131.29,342.4
			C128.56,343.98,124.27,344.06,121.7,342.58z"/>
		<path id="XMLID_608_" class="st7" d="M325.87,75.6c0-3.15-2.22-4.42-4.95-2.86L131.29,182.24c-1.37,0.79-2.61,2.15-3.49,3.7
			l-7.06-4.11h-0.01c0.9-1.55,2.14-2.91,3.5-3.7L313.85,68.65c2.73-1.58,7.02-1.66,9.59-0.18C326,69.95,325.87,72.45,325.87,75.6z"
			/>
		<path id="XMLID_606_" class="st8" d="M130.71,342.7c-2.73,1.28-6.61,1.26-9-0.13c-2.56-1.47-2.42-3.97-2.42-7.13V186.7
			c0-1.58,0.55-3.32,1.45-4.87l7.06,4.09v0.01c-0.89,1.55-1.45,3.29-1.45,4.87v148.75C126.34,342.47,128.25,343.79,130.71,342.7z"/>
		<path id="XMLID_605_" class="st9" d="M133.95,187.94L316.78,82.41c1.64-0.95,2.97-0.18,2.97,1.71v129.85
			c0,1.89-1.33,4.19-2.97,5.14L133.95,324.64c-1.64,0.95-2.97,0.18-2.97-1.71V193.08C130.98,191.19,132.31,188.89,133.95,187.94z"/>
		<path id="XMLID_604_" class="st8" d="M144.98,342.7L321,241.07c1.37-0.79,3.58-0.79,4.95,0l2.93,1.61c1.37,0.79,1.37,2.07,0,2.86
			L152.83,347.14c-1.37,0.79-3.58,0.79-4.95,0l-2.9-1.59C143.61,344.76,143.61,343.48,144.98,342.7z"/>
		<g id="XMLID_269_">
			<path id="XMLID_603_" class="st8" d="M158.78,350.9L334.8,249.28c1.37-0.79,3.39-0.9,4.52-0.25l45.81,26.45
				c1.13,0.65,0.94,1.82-0.43,2.61L208.9,379.58c-1.37,0.79-3.39,0.9-4.52,0.25l-46.01-26.33
				C157.23,352.86,157.42,351.69,158.78,350.9z"/>
			<path id="XMLID_270_" class="st7" d="M311.3,291.96l5.51-3.18c0.23-0.14,0.26-0.34,0.05-0.46l-5.27-3.04
				c-0.21-0.12-0.57-0.11-0.8,0.03l-5.51,3.18c-0.23,0.13-0.26,0.34-0.05,0.46l5.27,3.04C310.71,292.11,311.07,292.1,311.3,291.96z
				 M303.26,280.96l-5.51,3.18c-0.23,0.14-0.26,0.34-0.05,0.46l5.27,3.04c0.21,0.12,0.57,0.11,0.8-0.03l5.51-3.18
				c0.23-0.14,0.26-0.34,0.05-0.46l-5.27-3.04C303.85,280.81,303.49,280.82,303.26,280.96z M285.45,291.24l-9.33,5.38
				c-0.23,0.13-0.26,0.34-0.05,0.46l5.27,3.04c0.21,0.12,0.57,0.11,0.8-0.03l9.33-5.38c0.23-0.14,0.26-0.34,0.05-0.46l-5.27-3.04
				C286.05,291.09,285.69,291.1,285.45,291.24z M295.2,285.61l-5.51,3.18c-0.23,0.13-0.26,0.34-0.05,0.46l5.27,3.04
				c0.21,0.12,0.57,0.11,0.8-0.03l5.51-3.18c0.23-0.14,0.26-0.34,0.05-0.46l-5.27-3.04C295.8,285.46,295.44,285.47,295.2,285.61z
				 M273.58,298.09l-5.51,3.18c-0.23,0.14-0.26,0.34-0.05,0.46l5.27,3.04c0.21,0.12,0.57,0.11,0.8-0.03l5.51-3.18
				c0.23-0.13,0.25-0.34,0.05-0.46l-5.27-3.04C274.18,297.94,273.82,297.95,273.58,298.09z M265.53,302.74l-5.51,3.18
				c-0.23,0.14-0.26,0.34-0.05,0.46l5.27,3.04c0.21,0.12,0.57,0.11,0.8-0.03l5.51-3.18c0.23-0.14,0.26-0.34,0.05-0.46l-5.27-3.04
				C266.12,302.59,265.76,302.6,265.53,302.74z M286.19,315.16l5.51-3.18c0.23-0.13,0.26-0.34,0.05-0.46l-5.27-3.04
				c-0.21-0.12-0.57-0.11-0.8,0.03l-5.51,3.18c-0.23,0.14-0.26,0.34-0.05,0.46l5.27,3.04C285.6,315.31,285.96,315.29,286.19,315.16z
				 M278.14,319.81l5.51-3.18c0.23-0.14,0.26-0.34,0.05-0.46l-5.27-3.04c-0.21-0.12-0.57-0.11-0.8,0.03l-5.51,3.18
				c-0.23,0.13-0.26,0.34-0.05,0.46l5.27,3.04C277.55,319.96,277.91,319.95,278.14,319.81z M270.08,324.46l5.51-3.18
				c0.23-0.13,0.26-0.34,0.05-0.46l-5.27-3.04c-0.21-0.12-0.57-0.11-0.8,0.03l-5.51,3.18c-0.23,0.14-0.26,0.34-0.05,0.46l5.27,3.04
				C269.49,324.61,269.85,324.6,270.08,324.46z M262.03,329.11l5.51-3.18c0.23-0.13,0.26-0.34,0.05-0.46l-5.27-3.04
				c-0.21-0.12-0.57-0.11-0.8,0.03l-5.51,3.18c-0.23,0.14-0.26,0.34-0.05,0.46l5.27,3.04C261.44,329.26,261.8,329.25,262.03,329.11z
				 M303.25,296.61l5.51-3.18c0.23-0.13,0.26-0.34,0.05-0.46l-5.27-3.04c-0.21-0.12-0.57-0.11-0.8,0.03l-5.51,3.18
				c-0.23,0.14-0.26,0.34-0.05,0.46l5.27,3.04C302.66,296.76,303.02,296.75,303.25,296.61z M294.25,310.51l12.29-7.1
				c0.23-0.14,0.26-0.34,0.05-0.46l-12.8-7.39c-0.21-0.12-0.57-0.11-0.8,0.03l-6.36,3.67c-0.23,0.14-0.26,0.34-0.05,0.46l6.78,3.91
				c0.21,0.12,0.19,0.33-0.05,0.46l-5.09,2.94c-0.23,0.13-0.26,0.34-0.05,0.46l5.27,3.04C293.66,310.66,294.01,310.64,294.25,310.51
				z M257.47,307.39l-5.51,3.18c-0.23,0.13-0.26,0.34-0.05,0.46l5.27,3.04c0.21,0.12,0.57,0.11,0.8-0.03l5.51-3.18
				c0.23-0.14,0.26-0.34,0.05-0.46l-5.27-3.04C258.07,307.24,257.71,307.25,257.47,307.39z M249.42,312.04l-5.51,3.18
				c-0.23,0.14-0.26,0.34-0.05,0.46l5.27,3.04c0.21,0.12,0.57,0.11,0.8-0.03l5.51-3.18c0.23-0.13,0.26-0.34,0.05-0.46l-5.27-3.04
				C250.01,311.89,249.65,311.9,249.42,312.04z M204.85,361.69c0.21,0.12,0.57,0.11,0.8-0.03l5.51-3.18
				c0.23-0.14,0.26-0.34,0.05-0.46l-5.27-3.04c-0.21-0.12-0.57-0.11-0.8,0.03l-5.51,3.18c-0.23,0.14-0.26,0.34-0.05,0.46
				L204.85,361.69z M184.98,349.24l-5.51,3.18c-0.23,0.14-0.26,0.34-0.05,0.46l5.27,3.04c0.21,0.12,0.57,0.11,0.8-0.03l5.51-3.18
				c0.23-0.13,0.26-0.34,0.05-0.46l-5.27-3.04C185.57,349.09,185.22,349.11,184.98,349.24z M195.19,358.57
				c0.21,0.12,0.57,0.11,0.8-0.03l5.51-3.18c0.23-0.14,0.26-0.34,0.05-0.46l-5.27-3.04c-0.21-0.12-0.57-0.11-0.8,0.03l-5.51,3.18
				c-0.23,0.14-0.26,0.34-0.05,0.46L195.19,358.57z M217.42,363.56l5.51-3.18c0.23-0.14,0.26-0.34,0.05-0.46l-5.27-3.04
				c-0.21-0.12-0.57-0.11-0.8,0.03l-5.51,3.18c-0.23,0.13-0.26,0.34-0.05,0.46l5.27,3.04C216.83,363.71,217.18,363.7,217.42,363.56z
				 M208.56,368.24c0.21,0.12,0.57,0.11,0.8-0.03l5.51-3.18c0.23-0.14,0.26-0.34,0.05-0.46l-5.27-3.04
				c-0.21-0.12-0.57-0.11-0.8,0.03l-5.51,3.18c-0.23,0.14-0.26,0.34-0.05,0.46L208.56,368.24z M193.04,344.59l-5.51,3.18
				c-0.23,0.14-0.26,0.34-0.05,0.46l5.27,3.04c0.21,0.12,0.57,0.11,0.8-0.03l5.51-3.18c0.23-0.14,0.26-0.34,0.05-0.46l-5.27-3.04
				C193.63,344.44,193.27,344.46,193.04,344.59z M233.31,321.34l-5.51,3.18c-0.23,0.14-0.26,0.34-0.05,0.46l5.27,3.04
				c0.21,0.12,0.57,0.11,0.8-0.03l5.51-3.18c0.23-0.13,0.26-0.34,0.05-0.46l-5.27-3.04C233.9,321.19,233.54,321.2,233.31,321.34z
				 M201.09,339.94l-5.51,3.18c-0.23,0.13-0.26,0.34-0.05,0.46l5.27,3.04c0.21,0.12,0.57,0.11,0.8-0.03l5.51-3.18
				c0.23-0.14,0.26-0.34,0.05-0.46l-5.27-3.04C201.68,339.79,201.33,339.81,201.09,339.94z M241.36,316.69l-5.51,3.18
				c-0.23,0.13-0.26,0.34-0.05,0.46l5.27,3.04c0.21,0.12,0.57,0.11,0.8-0.03l5.51-3.18c0.23-0.14,0.26-0.34,0.05-0.46l-5.27-3.04
				C241.96,316.54,241.6,316.55,241.36,316.69z M225.25,325.99l-5.51,3.18c-0.23,0.14-0.26,0.34-0.05,0.46l5.27,3.04
				c0.21,0.12,0.57,0.11,0.8-0.03l5.51-3.18c0.23-0.13,0.26-0.34,0.05-0.46l-5.27-3.04C225.85,325.84,225.49,325.85,225.25,325.99z
				 M217.2,330.64l-5.51,3.18c-0.23,0.14-0.26,0.34-0.05,0.46l5.27,3.04c0.21,0.12,0.57,0.11,0.8-0.03l5.51-3.18
				c0.23-0.14,0.25-0.34,0.05-0.46l-5.27-3.04C217.79,330.49,217.43,330.51,217.2,330.64z M209.15,335.29l-5.51,3.18
				c-0.23,0.14-0.26,0.34-0.05,0.46l5.27,3.04c0.21,0.12,0.57,0.11,0.8-0.03l5.51-3.18c0.23-0.14,0.26-0.34,0.05-0.46l-5.27-3.04
				C209.74,335.14,209.38,335.16,209.15,335.29z M245.92,338.41l5.51-3.18c0.23-0.14,0.26-0.34,0.05-0.46l-5.27-3.04
				c-0.21-0.12-0.57-0.11-0.8,0.03l-5.51,3.18c-0.23,0.14-0.26,0.34-0.05,0.46l5.27,3.04C245.33,338.56,245.69,338.55,245.92,338.41
				z M321.06,270.68l-5.51,3.18c-0.23,0.14-0.26,0.34-0.05,0.46l5.27,3.04c0.21,0.12,0.57,0.11,0.8-0.03l5.51-3.18
				c0.23-0.14,0.25-0.34,0.05-0.46l-5.27-3.04C321.66,270.53,321.3,270.54,321.06,270.68z M311.31,276.3l-5.51,3.18
				c-0.23,0.14-0.26,0.34-0.05,0.46l5.27,3.04c0.21,0.12,0.57,0.11,0.8-0.03l5.51-3.18c0.23-0.14,0.26-0.34,0.05-0.46l-5.27-3.04
				C311.9,276.16,311.55,276.17,311.31,276.3z M329.12,266.03l-5.51,3.18c-0.23,0.14-0.26,0.34-0.05,0.46l5.27,3.04
				c0.21,0.12,0.57,0.11,0.8-0.03l5.51-3.18c0.23-0.14,0.26-0.34,0.05-0.46l-5.27-3.04C329.71,265.88,329.35,265.89,329.12,266.03z
				 M284.6,307.38l5.51-3.18c0.23-0.14,0.26-0.34,0.05-0.46l-5.27-3.04c-0.21-0.12-0.57-0.11-0.8,0.03l-5.51,3.18
				c-0.23,0.14-0.26,0.34-0.05,0.46l5.27,3.04C284,307.53,284.36,307.52,284.6,307.38z M337.97,261.35
				c-0.21-0.12-0.57-0.11-0.8,0.03l-5.51,3.18c-0.23,0.14-0.26,0.34-0.05,0.46l5.27,3.04c0.21,0.12,0.57,0.11,0.8-0.03l5.51-3.18
				c0.23-0.14,0.26-0.34,0.05-0.46L337.97,261.35z M253.98,333.76l5.51-3.18c0.23-0.14,0.26-0.34,0.05-0.46l-5.27-3.04
				c-0.21-0.12-0.57-0.11-0.8,0.03l-5.51,3.18c-0.23,0.13-0.26,0.34-0.05,0.46l5.27,3.04C253.38,333.91,253.74,333.9,253.98,333.76z
				 M352.75,276.73l5.51-3.18c0.23-0.14,0.26-0.34,0.05-0.46l-5.27-3.04c-0.21-0.12-0.57-0.11-0.8,0.03l-5.51,3.18
				c-0.23,0.13-0.26,0.34-0.05,0.46l5.27,3.04C352.16,276.88,352.52,276.87,352.75,276.73z M337.16,277.03l5.51-3.18
				c0.23-0.13,0.26-0.34,0.05-0.46l-5.27-3.04c-0.21-0.12-0.57-0.11-0.8,0.03l-5.51,3.18c-0.23,0.14-0.26,0.34-0.05,0.46l5.27,3.04
				C336.57,277.18,336.93,277.17,337.16,277.03z M345.5,265.7c-0.21-0.12-0.57-0.11-0.8,0.03l-5.51,3.18
				c-0.23,0.14-0.26,0.34-0.05,0.46l5.27,3.04c0.21,0.12,0.57,0.11,0.8-0.03l5.51-3.18c0.23-0.14,0.26-0.34,0.05-0.46L345.5,265.7z
				 M347.2,264.72l12.8,7.39c0.21,0.12,0.57,0.11,0.8-0.03l5.51-3.18c0.23-0.14,0.26-0.34,0.05-0.46l-12.8-7.39
				c-0.21-0.12-0.57-0.11-0.8,0.03l-5.51,3.18C347.01,264.39,346.99,264.6,347.2,264.72z M328.59,275.02l-5.51,3.18
				c-0.23,0.13-0.26,0.34-0.05,0.46l5.27,3.04c0.21,0.12,0.57,0.11,0.8-0.03l5.51-3.18c0.23-0.14,0.26-0.34,0.05-0.46L329.4,275
				C329.19,274.88,328.83,274.89,328.59,275.02z M267.97,310.02l-5.51,3.18c-0.23,0.14-0.26,0.34-0.05,0.46l5.27,3.04
				c0.21,0.12,0.57,0.11,0.8-0.03l5.51-3.18c0.23-0.14,0.26-0.34,0.05-0.46l-5.27-3.04C268.57,309.88,268.21,309.89,267.97,310.02z
				 M343.9,281.41c0.21,0.12,0.57,0.11,0.8-0.03l5.51-3.18c0.23-0.14,0.26-0.34,0.05-0.46l-5.27-3.04c-0.21-0.12-0.57-0.11-0.8,0.03
				l-5.51,3.18c-0.23,0.13-0.26,0.34-0.05,0.46L343.9,281.41z M276.03,305.37l-5.51,3.18c-0.23,0.14-0.26,0.34-0.05,0.46l5.27,3.04
				c0.21,0.12,0.57,0.11,0.8-0.03l5.51-3.18c0.23-0.14,0.26-0.34,0.05-0.46l-5.27-3.04C276.62,305.23,276.26,305.24,276.03,305.37z
				 M212.9,357.04c0.21,0.12,0.57,0.11,0.8-0.03l5.51-3.18c0.23-0.14,0.26-0.34,0.05-0.46l-5.27-3.04c-0.21-0.12-0.57-0.11-0.8,0.03
				l-5.51,3.18c-0.23,0.14-0.26,0.34-0.05,0.46L212.9,357.04z M203.54,347.23l-5.51,3.18c-0.23,0.13-0.26,0.34-0.05,0.46l5.27,3.04
				c0.21,0.12,0.57,0.11,0.8-0.03l5.51-3.18c0.23-0.14,0.26-0.34,0.05-0.46l-5.27-3.04C204.13,347.08,203.77,347.09,203.54,347.23z
				 M221.76,352.36l5.51-3.18c0.23-0.13,0.26-0.34,0.05-0.46l-5.27-3.04c-0.21-0.12-0.57-0.11-0.8,0.03l-5.51,3.18
				c-0.23,0.14-0.26,0.34-0.05,0.46l5.27,3.04C221.16,352.51,221.52,352.5,221.76,352.36z M229.81,347.71l5.51-3.18
				c0.23-0.14,0.26-0.34,0.05-0.46l-5.27-3.04c-0.21-0.12-0.57-0.11-0.8,0.03l-5.51,3.18c-0.23,0.14-0.26,0.34-0.05,0.46l5.27,3.04
				C229.22,347.86,229.58,347.85,229.81,347.71z M237.87,343.06l5.51-3.18c0.23-0.14,0.26-0.34,0.05-0.46l-5.27-3.04
				c-0.21-0.12-0.57-0.11-0.8,0.03l-5.51,3.18c-0.23,0.14-0.26,0.34-0.05,0.46l5.27,3.04C237.27,343.21,237.63,343.2,237.87,343.06z
				 M211.59,342.58l-5.51,3.18c-0.23,0.14-0.26,0.34-0.05,0.46l5.27,3.04c0.21,0.12,0.57,0.11,0.8-0.03l5.51-3.18
				c0.23-0.14,0.26-0.34,0.05-0.46l-5.27-3.04C212.18,342.43,211.82,342.44,211.59,342.58z M219.65,337.93l-5.51,3.18
				c-0.23,0.14-0.26,0.34-0.05,0.46l5.27,3.04c0.21,0.12,0.57,0.11,0.8-0.03l5.51-3.18c0.23-0.14,0.26-0.34,0.05-0.46l-5.27-3.04
				C220.24,337.78,219.88,337.79,219.65,337.93z M251.86,319.33l-5.51,3.18c-0.23,0.14-0.26,0.34-0.05,0.46l5.27,3.04
				c0.21,0.12,0.57,0.11,0.8-0.03l5.51-3.18c0.23-0.14,0.26-0.34,0.05-0.46l-5.27-3.04C252.46,319.18,252.1,319.19,251.86,319.33z
				 M243.81,323.98l-5.51,3.18c-0.23,0.14-0.26,0.34-0.05,0.46l5.27,3.04c0.21,0.12,0.57,0.11,0.8-0.03l5.51-3.18
				c0.23-0.14,0.26-0.34,0.05-0.46l-5.27-3.04C244.4,323.83,244.04,323.84,243.81,323.98z M259.92,314.67l-5.51,3.18
				c-0.23,0.14-0.26,0.34-0.05,0.46l5.27,3.04c0.21,0.12,0.57,0.11,0.8-0.03l5.51-3.18c0.23-0.14,0.26-0.34,0.05-0.46l-5.27-3.04
				C260.51,314.53,260.15,314.54,259.92,314.67z M227.7,333.28l-5.51,3.18c-0.23,0.14-0.26,0.34-0.05,0.46l5.27,3.04
				c0.21,0.12,0.57,0.11,0.8-0.03l5.51-3.18c0.23-0.14,0.26-0.34,0.05-0.46l-5.27-3.04C228.29,333.13,227.93,333.14,227.7,333.28z
				 M235.75,328.63l-5.51,3.18c-0.23,0.14-0.26,0.34-0.05,0.46l5.27,3.04c0.21,0.12,0.57,0.11,0.8-0.03l5.51-3.18
				c0.23-0.14,0.26-0.34,0.05-0.46l-5.27-3.04C236.35,328.48,235.99,328.49,235.75,328.63z M225.47,358.91l5.51-3.18
				c0.23-0.14,0.26-0.34,0.05-0.46l-5.27-3.04c-0.21-0.12-0.57-0.11-0.8,0.03l-5.51,3.18c-0.23,0.14-0.26,0.34-0.05,0.46l5.27,3.04
				C224.88,359.06,225.24,359.05,225.47,358.91z M183,356.91l-5.27-3.04c-0.21-0.12-0.57-0.11-0.8,0.03l-5.51,3.18
				c-0.23,0.14-0.26,0.34-0.05,0.46l5.27,3.04c0.21,0.12,0.57,0.11,0.8-0.03l5.51-3.18C183.19,357.24,183.21,357.03,183,356.91z
				 M193.5,359.54l-5.27-3.04c-0.21-0.12-0.57-0.11-0.8,0.03l-8.48,4.89c-0.23,0.14-0.26,0.34-0.05,0.46l5.27,3.04
				c0.21,0.12,0.57,0.11,0.8-0.03l8.48-4.9C193.69,359.87,193.71,359.66,193.5,359.54z M175.13,350.9l-5.27-3.04
				c-0.21-0.12-0.57-0.11-0.8,0.03l-6.78,3.92c-0.23,0.13-0.26,0.34-0.05,0.46l5.27,3.04c0.21,0.12,0.57,0.11,0.8-0.03l6.78-3.92
				C175.32,351.22,175.34,351.02,175.13,350.9z M180.33,347.89c0.21,0.12,0.57,0.11,0.8-0.03l5.51-3.18
				c0.23-0.14,0.26-0.34,0.05-0.46l-5.27-3.04c-0.21-0.12-0.57-0.11-0.8,0.03l-5.51,3.18c-0.23,0.14-0.26,0.34-0.05,0.46
				L180.33,347.89z M203.15,362.67l-5.27-3.04c-0.21-0.12-0.57-0.11-0.8,0.03l-10.6,6.12c-0.23,0.14-0.26,0.34-0.05,0.46l5.27,3.04
				c0.21,0.12,0.57,0.11,0.8-0.03l10.6-6.12C203.34,363,203.36,362.79,203.15,362.67z M206.87,369.22l-5.27-3.04
				c-0.21-0.12-0.57-0.11-0.8,0.03l-6.78,3.92c-0.23,0.14-0.26,0.34-0.05,0.46l5.27,3.04c0.21,0.12,0.57,0.11,0.8-0.03l6.78-3.92
				C207.05,369.55,207.08,369.34,206.87,369.22z M240.22,313.32c0.21,0.12,0.57,0.11,0.8-0.03l5.51-3.18
				c0.23-0.13,0.26-0.34,0.05-0.46l-5.27-3.04c-0.21-0.12-0.57-0.11-0.8,0.03l-5.51,3.18c-0.23,0.14-0.26,0.34-0.05,0.46
				L240.22,313.32z M224.11,322.62c0.21,0.12,0.57,0.11,0.8-0.03l5.51-3.18c0.23-0.13,0.26-0.34,0.05-0.46l-5.27-3.04
				c-0.21-0.12-0.57-0.11-0.8,0.03l-5.51,3.18c-0.23,0.14-0.26,0.34-0.05,0.46L224.11,322.62z M188.38,343.24
				c0.21,0.12,0.57,0.11,0.8-0.03l5.51-3.18c0.23-0.14,0.26-0.34,0.05-0.46l-5.27-3.04c-0.21-0.12-0.57-0.11-0.8,0.03l-5.51,3.18
				c-0.23,0.13-0.26,0.34-0.05,0.46L188.38,343.24z M232.16,317.97c0.21,0.12,0.57,0.11,0.8-0.03l5.51-3.18
				c0.23-0.13,0.26-0.34,0.05-0.46l-5.27-3.04c-0.21-0.12-0.57-0.11-0.8,0.03l-5.51,3.18c-0.23,0.14-0.26,0.34-0.05,0.46
				L232.16,317.97z M216.05,327.27c0.21,0.12,0.57,0.11,0.8-0.03l5.51-3.18c0.23-0.14,0.26-0.34,0.05-0.46l-5.27-3.04
				c-0.21-0.12-0.57-0.11-0.8,0.03l-5.51,3.18c-0.23,0.14-0.26,0.34-0.05,0.46L216.05,327.27z M210.82,369.55
				c-0.21-0.12-0.57-0.11-0.8,0.03l-8.48,4.9c-0.23,0.13-0.26,0.34-0.05,0.46l5.27,3.04c0.21,0.12,0.57,0.11,0.8-0.03l8.48-4.89
				c0.23-0.14,0.26-0.34,0.05-0.46L210.82,369.55z M204.49,333.94c0.21,0.12,0.57,0.11,0.8-0.03l5.51-3.18
				c0.23-0.14,0.26-0.34,0.05-0.46l-5.27-3.04c-0.21-0.12-0.57-0.11-0.8,0.03l-5.51,3.18c-0.23,0.14-0.26,0.34-0.05,0.46
				L204.49,333.94z M196.44,338.59c0.21,0.12,0.57,0.11,0.8-0.03l5.51-3.18c0.23-0.14,0.26-0.34,0.05-0.46l-5.27-3.04
				c-0.21-0.12-0.57-0.11-0.8,0.03l-5.51,3.18c-0.23,0.14-0.26,0.34-0.05,0.46L196.44,338.59z M360.05,283.39
				c-0.21-0.12-0.57-0.11-0.8,0.03l-13.57,7.83c-0.23,0.14-0.26,0.34-0.05,0.46l5.27,3.04c0.21,0.12,0.57,0.11,0.8-0.03l13.57-7.83
				c0.23-0.13,0.26-0.34,0.05-0.46L360.05,283.39z M342.24,293.67c-0.21-0.12-0.57-0.11-0.8,0.03l-5.51,3.18
				c-0.23,0.14-0.26,0.34-0.05,0.46l5.27,3.04c0.21,0.12,0.57,0.11,0.8-0.03l5.51-3.18c0.23-0.13,0.26-0.34,0.05-0.46L342.24,293.67
				z M233.53,354.26l5.51-3.18c0.23-0.14,0.26-0.34,0.05-0.46l-5.27-3.04c-0.21-0.12-0.57-0.11-0.8,0.03l-5.51,3.18
				c-0.23,0.14-0.26,0.34-0.05,0.46l5.27,3.04C232.94,354.41,233.29,354.4,233.53,354.26z M326.13,302.97
				c-0.21-0.12-0.57-0.11-0.8,0.03l-5.51,3.18c-0.23,0.14-0.26,0.34-0.05,0.46l5.27,3.04c0.21,0.12,0.57,0.11,0.8-0.03l5.51-3.18
				c0.23-0.14,0.26-0.34,0.05-0.46L326.13,302.97z M368.1,278.74c-0.21-0.12-0.57-0.11-0.8,0.03l-5.51,3.18
				c-0.23,0.13-0.26,0.34-0.05,0.46l5.27,3.04c0.21,0.12,0.57,0.11,0.8-0.03l5.51-3.18c0.23-0.14,0.26-0.34,0.05-0.46L368.1,278.74z
				 M381.43,277.14l-12.8-7.39c-0.21-0.12-0.57-0.11-0.8,0.03l-5.51,3.18c-0.23,0.14-0.26,0.34-0.05,0.46l12.8,7.39
				c0.21,0.12,0.57,0.11,0.8-0.03l5.51-3.18C381.61,277.46,381.64,277.26,381.43,277.14z M296.03,320.35
				c-0.21-0.12-0.57-0.11-0.8,0.03l-6.78,3.92c-0.23,0.13-0.26,0.34-0.05,0.46l5.27,3.04c0.21,0.12,0.57,0.11,0.8-0.03l6.78-3.92
				c0.23-0.14,0.26-0.34,0.05-0.46L296.03,320.35z M316.38,308.6c-0.21-0.12-0.57-0.11-0.8,0.03l-8.48,4.9
				c-0.23,0.13-0.26,0.34-0.05,0.46l5.27,3.04c0.21,0.12,0.57,0.11,0.8-0.03l8.48-4.9c0.23-0.14,0.26-0.34,0.05-0.46L316.38,308.6z
				 M277.38,331.12c-0.21-0.12-0.57-0.11-0.8,0.03l-45.36,26.19c-0.23,0.14-0.26,0.34-0.05,0.46l5.27,3.04
				c0.21,0.12,0.57,0.11,0.8-0.03l45.36-26.19c0.23-0.14,0.26-0.34,0.05-0.46L277.38,331.12z M229.48,358.78
				c-0.21-0.12-0.57-0.11-0.8,0.03l-6.78,3.92c-0.23,0.14-0.26,0.34-0.05,0.46l5.27,3.04c0.21,0.12,0.57,0.11,0.8-0.03l6.78-3.92
				c0.23-0.13,0.25-0.34,0.05-0.46L229.48,358.78z M286.71,325.74c-0.21-0.12-0.57-0.11-0.8,0.03l-6.78,3.92
				c-0.23,0.14-0.26,0.34-0.05,0.46l5.27,3.04c0.21,0.12,0.57,0.11,0.8-0.03l6.78-3.92c0.23-0.13,0.26-0.34,0.05-0.46L286.71,325.74
				z M220.15,364.16c-0.21-0.12-0.57-0.11-0.8,0.03l-6.78,3.92c-0.23,0.14-0.26,0.34-0.05,0.46l5.27,3.04
				c0.21,0.12,0.57,0.11,0.8-0.03l6.78-3.92c0.23-0.14,0.26-0.34,0.05-0.46L220.15,364.16z M305.36,314.97
				c-0.21-0.12-0.57-0.11-0.8,0.03l-6.78,3.92c-0.23,0.14-0.26,0.34-0.05,0.46l5.27,3.04c0.21,0.12,0.57,0.11,0.8-0.03l6.78-3.92
				c0.23-0.14,0.26-0.34,0.05-0.46L305.36,314.97z M334.19,298.32c-0.21-0.12-0.57-0.11-0.8,0.03l-5.51,3.18
				c-0.23,0.14-0.26,0.34-0.05,0.46l5.27,3.04c0.21,0.12,0.57,0.11,0.8-0.03l5.51-3.18c0.23-0.14,0.26-0.34,0.05-0.46L334.19,298.32
				z M352.23,285.73l5.51-3.18c0.23-0.14,0.26-0.34,0.05-0.46l-5.27-3.04c-0.21-0.12-0.57-0.11-0.8,0.03l-5.51,3.18
				c-0.23,0.14-0.26,0.34-0.05,0.46l5.27,3.04C351.64,285.88,351.99,285.87,352.23,285.73z M319.36,287.31l5.51-3.18
				c0.23-0.13,0.26-0.34,0.05-0.46l-5.27-3.04c-0.21-0.12-0.57-0.11-0.8,0.03l-5.51,3.18c-0.23,0.14-0.26,0.34-0.05,0.46l5.27,3.04
				C318.77,287.46,319.12,287.45,319.36,287.31z M297.97,317.06l16.11-9.3c0.23-0.14,0.26-0.34,0.05-0.46l-5.27-3.04
				c-0.21-0.12-0.57-0.11-0.8,0.03l-16.11,9.3c-0.23,0.13-0.26,0.34-0.05,0.46l5.27,3.04C297.37,317.21,297.73,317.2,297.97,317.06z
				 M343.37,290.41c0.21,0.12,0.57,0.11,0.8-0.03l5.51-3.18c0.23-0.14,0.26-0.34,0.05-0.46l-5.27-3.04
				c-0.21-0.12-0.57-0.11-0.8,0.03l-5.51,3.18c-0.23,0.13-0.25,0.34-0.05,0.46L343.37,290.41z M336.64,286.03l5.51-3.18
				c0.23-0.13,0.26-0.34,0.05-0.46l-5.27-3.04c-0.21-0.12-0.57-0.11-0.8,0.03l-5.51,3.18c-0.23,0.14-0.26,0.34-0.05,0.46l5.27,3.04
				C336.05,286.18,336.41,286.17,336.64,286.03z M289.91,321.71l5.51-3.18c0.23-0.14,0.26-0.34,0.05-0.46l-5.27-3.04
				c-0.21-0.12-0.57-0.11-0.8,0.03l-5.51,3.18c-0.23,0.13-0.26,0.34-0.05,0.46l5.27,3.04C289.32,321.86,289.68,321.85,289.91,321.71
				z M325.57,300.69c0.21,0.12,0.57,0.11,0.8-0.03l5.51-3.18c0.23-0.14,0.26-0.34,0.05-0.46l-5.27-3.04
				c-0.21-0.12-0.57-0.11-0.8,0.03l-5.51,3.18c-0.23,0.14-0.26,0.34-0.05,0.46L325.57,300.69z M249.64,344.96l5.51-3.18
				c0.23-0.13,0.25-0.34,0.05-0.46l-5.27-3.04c-0.21-0.12-0.57-0.11-0.8,0.03l-5.51,3.18c-0.23,0.13-0.26,0.34-0.05,0.46l5.27,3.04
				C249.04,345.11,249.4,345.1,249.64,344.96z M257.69,340.31l5.51-3.18c0.23-0.14,0.26-0.34,0.05-0.46l-5.27-3.04
				c-0.21-0.12-0.57-0.11-0.8,0.03l-5.51,3.18c-0.23,0.13-0.26,0.34-0.05,0.46l5.27,3.04C257.1,340.46,257.46,340.45,257.69,340.31z
				 M241.58,349.61l5.51-3.18c0.23-0.14,0.26-0.34,0.05-0.46l-5.27-3.04c-0.21-0.12-0.57-0.11-0.8,0.03l-5.51,3.18
				c-0.23,0.14-0.26,0.34-0.05,0.46l5.27,3.04C240.99,349.76,241.35,349.75,241.58,349.61z M273.8,331.01l5.51-3.18
				c0.23-0.14,0.26-0.34,0.05-0.46l-5.27-3.04c-0.21-0.12-0.57-0.11-0.8,0.03l-5.51,3.18c-0.23,0.13-0.26,0.34-0.05,0.46l5.27,3.04
				C273.21,331.16,273.57,331.15,273.8,331.01z M265.75,335.66l5.51-3.18c0.23-0.13,0.26-0.34,0.05-0.46l-5.27-3.04
				c-0.21-0.12-0.57-0.11-0.8,0.03l-5.51,3.18c-0.23,0.14-0.26,0.34-0.05,0.46l5.27,3.04C265.15,335.81,265.51,335.8,265.75,335.66z
				 M281.86,326.36l5.51-3.18c0.23-0.13,0.26-0.34,0.05-0.46l-5.27-3.04c-0.21-0.12-0.57-0.11-0.8,0.03l-5.51,3.18
				c-0.23,0.13-0.26,0.34-0.05,0.46l5.27,3.04C281.26,326.51,281.62,326.5,281.86,326.36z M325.81,261.67
				c0.21,0.12,0.57,0.11,0.8-0.03l5.51-3.18c0.23-0.14,0.26-0.34,0.05-0.46l-1.4-0.81c-0.21-0.12-0.57-0.11-0.8,0.03l-5.51,3.18
				c-0.23,0.13-0.26,0.34-0.05,0.46L325.81,261.67z M285.78,287.02c0.21,0.12,0.57,0.11,0.8-0.03l5.51-3.18
				c0.23-0.14,0.26-0.34,0.05-0.46l-5.27-3.04c-0.21-0.12-0.57-0.11-0.8,0.03l-5.51,3.18c-0.23,0.14-0.26,0.34-0.05,0.46
				L285.78,287.02z M301.89,277.71c0.21,0.12,0.57,0.11,0.8-0.03l5.51-3.18c0.23-0.14,0.26-0.34,0.05-0.46l-5.27-3.04
				c-0.21-0.12-0.57-0.11-0.8,0.03l-5.51,3.18c-0.23,0.14-0.26,0.34-0.05,0.46L301.89,277.71z M275.94,292.69
				c0.21,0.12,0.57,0.11,0.8-0.03l5.51-3.18c0.23-0.13,0.26-0.34,0.05-0.46l-5.27-3.04c-0.21-0.12-0.57-0.11-0.8,0.03l-5.51,3.18
				c-0.23,0.14-0.26,0.34-0.05,0.46L275.94,292.69z M293.83,282.37c0.21,0.12,0.57,0.11,0.8-0.03l5.51-3.18
				c0.23-0.14,0.26-0.34,0.05-0.46l-5.27-3.04c-0.21-0.12-0.57-0.11-0.8,0.03l-5.51,3.18c-0.23,0.14-0.26,0.34-0.05,0.46
				L293.83,282.37z M259.83,302c0.21,0.12,0.57,0.11,0.8-0.03l5.51-3.18c0.23-0.14,0.26-0.34,0.05-0.46l-5.27-3.04
				c-0.21-0.12-0.57-0.11-0.8,0.03l-5.51,3.18c-0.23,0.14-0.25,0.34-0.05,0.46L259.83,302z M267.89,297.34
				c0.21,0.12,0.57,0.11,0.8-0.03l5.51-3.18c0.23-0.14,0.25-0.34,0.05-0.46l-5.27-3.04c-0.21-0.12-0.57-0.11-0.8,0.03l-5.51,3.18
				c-0.23,0.14-0.26,0.34-0.05,0.46L267.89,297.34z M309.7,270.97c0.21,0.12,0.57,0.11,0.8-0.03l5.51-3.18
				c0.23-0.13,0.25-0.34,0.05-0.46l-1.4-0.81c-0.21-0.12-0.57-0.11-0.8,0.03l-5.51,3.18c-0.23,0.14-0.26,0.34-0.05,0.46
				L309.7,270.97z M333.87,257.02c0.21,0.12,0.57,0.11,0.8-0.03l5.51-3.18c0.23-0.14,0.26-0.34,0.05-0.46l-1.4-0.81
				c-0.21-0.12-0.57-0.11-0.8,0.03l-5.51,3.18c-0.23,0.14-0.26,0.34-0.05,0.46L333.87,257.02z M344.94,263.41
				c0.21,0.12,0.57,0.11,0.8-0.03l5.51-3.18c0.23-0.14,0.26-0.34,0.05-0.46l-5.27-3.04c-0.21-0.12-0.57-0.11-0.8,0.03l-5.51,3.18
				c-0.23,0.14-0.26,0.34-0.05,0.46L344.94,263.41z M360.28,281.08l5.51-3.18c0.23-0.13,0.26-0.34,0.05-0.46l-5.27-3.04
				c-0.21-0.12-0.57-0.11-0.8,0.03l-5.51,3.18c-0.23,0.14-0.26,0.34-0.05,0.46l5.27,3.04C359.69,281.23,360.05,281.22,360.28,281.08
				z M317.76,266.32c0.21,0.12,0.57,0.11,0.8-0.03l5.51-3.18c0.23-0.14,0.26-0.34,0.05-0.46l-1.4-0.81
				c-0.21-0.12-0.57-0.11-0.8,0.03l-5.51,3.18c-0.23,0.14-0.26,0.34-0.05,0.46L317.76,266.32z M251.78,306.65
				c0.21,0.12,0.57,0.11,0.8-0.03l5.51-3.18c0.23-0.14,0.26-0.34,0.05-0.46l-5.27-3.04c-0.21-0.12-0.57-0.11-0.8,0.03l-5.51,3.18
				c-0.23,0.13-0.26,0.34-0.05,0.46L251.78,306.65z"/>
		</g>
		<polygon id="XMLID_268_" class="st6" points="275.61,348.19 276.74,348.84 306.76,366.16 360.13,335.35 361.24,334.71 
			330.1,316.74 		"/>
		<g id="XMLID_261_">
			<polygon id="XMLID_266_" class="st8" points="276.74,348.84 306.76,366.16 360.13,335.35 330.1,318.02 			"/>
		</g>
	</g>
</g>
<g id="Mail_Box">
	<g id="MailBox_2_">
		<g>
			<g>
				<path class="st2" d="M107.06,213.2l-12.23-7.06c-0.54-0.31-0.94-0.39-1.15-0.27c-0.26,0.15-1.27,0.74-1.49,0.86
					c-0.26,0.15-0.26,0.59,0.07,1.27l2.97,6.16l-2.22,2.04c-1.02,0.93-0.87,2.25,0.32,2.94l12.23,7.06l1.49-0.86V213.2z"/>
				<path class="st10" d="M107.06,213.2l-12.23-7.06c-0.54-0.31-0.94-0.39-1.15-0.27c-0.26,0.15-1.27,0.74-1.49,0.86
					c-0.26,0.15-0.26,0.59,0.07,1.27l2.97,6.16l-2.22,2.04c-1.02,0.93-0.87,2.25,0.32,2.94l12.23,7.06l1.49-0.86V213.2z"/>
				<path id="XMLID_1090_" class="st2" d="M93.34,207.01c-1.2-0.69-1.68-0.24-1.08,1l2.97,6.16l-2.22,2.04
					c-1.02,0.93-0.87,2.25,0.32,2.94l12.23,7.06v-12.14L93.34,207.01z"/>
			</g>
			<g id="XMLID_1088_">
				<path id="XMLID_1089_" class="st7" d="M107.01,252.11c-0.79,0-1.44-0.64-1.44-1.44v-40.62c0-0.79,0.64-1.44,1.44-1.44
					c0.79,0,1.44,0.64,1.44,1.44v40.62C108.44,251.47,107.8,252.11,107.01,252.11z"/>
			</g>
		</g>
		<g>
			<path id="XMLID_1087_" class="st8" d="M54.39,360.27v-2.54h0.63c0.73-1.48,2.1-2.87,4.11-4.04c6.32-3.65,16.56-3.65,22.88,0
				c2.01,1.16,3.38,2.56,4.11,4.04h0.62v2.46c0.05,2.43-1.52,4.86-4.73,6.72c-6.32,3.65-16.56,3.65-22.88,0
				C55.95,365.08,54.37,362.67,54.39,360.27z"/>
			<ellipse id="XMLID_628_" class="st7" cx="70.56" cy="357.74" rx="16.18" ry="9.34"/>
		</g>
		<g>
			<path id="XMLID_1085_" class="st6" d="M74.73,269.77l0,86.85c0,0.62-0.41,1.23-1.22,1.7c-1.63,0.94-4.26,0.94-5.89,0
				c-0.81-0.47-1.22-1.08-1.22-1.7l0-86.85H74.73z"/>
			<polygon id="XMLID_1084_" class="st8" points="66.4,280.28 66.4,288.45 74.73,293.25 74.73,285.1 			"/>
		</g>
		<g>
			<path class="st2" d="M96.6,262.01l15.4,8.9c-0.08,0.12-0.19,0.24-0.3,0.31l-26.94,15.55c-0.23,0.13-0.41,0.03-0.41-0.24v-19.41
				c0-3.38,0.78-7.14,2.25-10.88L96.6,262.01z"/>
			<path class="st11" d="M96.6,262.01l15.4,8.9c-0.08,0.12-0.19,0.24-0.3,0.31l-26.94,15.55c-0.23,0.13-0.41,0.03-0.41-0.24v-19.41
				c0-3.38,0.78-7.14,2.25-10.88L96.6,262.01z"/>
			<path id="XMLID_1083_" class="st2" d="M112.12,249.25v21.72L86.6,256.24c0.03-0.07,0.05-0.14,0.08-0.21
				c2.74-6.83,7.35-12.63,12.35-15.51c2.05-1.19,3.99-1.79,5.77-1.79C109.31,238.73,112.12,242.76,112.12,249.25z"/>
			<path id="XMLID_629_" class="st3" d="M112.12,249.25v21.72L86.6,256.24c0.03-0.07,0.05-0.14,0.08-0.21
				c2.74-6.83,7.35-12.63,12.35-15.51c2.05-1.19,3.99-1.79,5.77-1.79C109.31,238.73,112.12,242.76,112.12,249.25z"/>
		</g>
		<g id="XMLID_1075_">
			<path id="XMLID_627_" class="st2" d="M139.83,295.22l0-1.94h-0.18v0.28c-0.11-0.53-0.28-1.05-0.51-1.57
				c-1.02-2.38-3.16-4.66-6.44-6.55l-18.23-10.53c-0.76-0.44-1.99-0.44-2.75,0l-27.88,16.09c-0.29-0.26-0.62-0.52-0.89-0.98l0,1.95
				v0l0,0c0,0.29,0.19,0.57,0.57,0.79l18.23,10.53c4.88,2.82,11.26,4.2,17.44,4.12c5.35-0.07,10.55-1.24,14.51-3.53
				C137.8,301.54,139.82,298.41,139.83,295.22L139.83,295.22z"/>
			<path id="XMLID_634_" class="st11" d="M139.83,295.22l0-1.94h-0.18v0.28c-0.11-0.53-0.28-1.05-0.51-1.57
				c-1.02-2.38-3.16-4.66-6.44-6.55l-18.23-10.53c-0.76-0.44-1.99-0.44-2.75,0l-27.88,16.09c-0.29-0.26-0.62-0.52-0.89-0.98l0,1.95
				v0l0,0c0,0.29,0.19,0.57,0.57,0.79l18.23,10.53c4.88,2.82,11.26,4.2,17.44,4.12c5.35-0.07,10.55-1.24,14.51-3.53
				C137.8,301.54,139.82,298.41,139.83,295.22L139.83,295.22z"/>
			<path id="XMLID_1077_" class="st2" d="M139.14,291.99c-1.02-2.38-3.16-4.66-6.44-6.55l-18.23-10.53c-0.76-0.44-1.99-0.44-2.75,0
				l-27.88,16.09l17.91,10.34c4.88,2.82,11.26,4.2,17.44,4.12c5.35-0.07,10.55-1.24,14.51-3.53c3.68-2.12,5.69-4.85,6.06-7.7
				C139.67,293.49,139.46,292.73,139.14,291.99z"/>
			<path id="XMLID_632_" class="st12" d="M139.14,291.99c-1.02-2.38-3.16-4.66-6.44-6.55l-18.23-10.53c-0.76-0.44-1.99-0.44-2.75,0
				l-27.88,16.09l17.91,10.34c4.88,2.82,11.26,4.2,17.44,4.12c5.35-0.07,10.55-1.24,14.51-3.53c3.68-2.12,5.69-4.85,6.06-7.7
				C139.67,293.49,139.46,292.73,139.14,291.99z"/>
			<path id="XMLID_1076_" class="st2" d="M139.76,294.24c-0.09-0.76-0.3-1.51-0.63-2.26c-1.02-2.38-3.16-4.66-6.44-6.55
				l-18.23-10.53c-0.76-0.44-1.99-0.44-2.75,0l-27.88,16.09l-0.32-0.18c-0.76-0.44-0.76-1.15,0-1.59l28.19-16.28
				c0.76-0.44,1.99-0.44,2.75,0l18.23,10.53c3.28,1.89,5.42,4.17,6.44,6.55c0.34,0.79,0.56,1.59,0.64,2.4
				C139.85,293.04,139.84,293.64,139.76,294.24z"/>
			<path id="XMLID_635_" class="st3" d="M139.76,294.24c-0.09-0.76-0.3-1.51-0.63-2.26c-1.02-2.38-3.16-4.66-6.44-6.55l-18.23-10.53
				c-0.76-0.44-1.99-0.44-2.75,0l-27.88,16.09l-0.32-0.18c-0.76-0.44-0.76-1.15,0-1.59l28.19-16.28c0.76-0.44,1.99-0.44,2.75,0
				l18.23,10.53c3.28,1.89,5.42,4.17,6.44,6.55c0.34,0.79,0.56,1.59,0.64,2.4C139.85,293.04,139.84,293.64,139.76,294.24z"/>
		</g>
		<polygon id="XMLID_1074_" class="st2" points="84.14,288.96 112.33,272.68 111.71,271.21 84.76,286.77 		"/>
		<polygon id="XMLID_631_" class="st13" points="84.14,288.96 112.33,272.68 111.71,271.21 84.76,286.77 		"/>
		<g>
			<g id="Letter_6_">
				<g id="XMLID_1028_">
					<g id="XMLID_1030_">
						<path id="XMLID_624_" class="st0" d="M109.63,247.96c0-0.43-0.3-0.95-0.67-1.16l-34.32-19.82c-0.37-0.21-0.97-0.21-1.34,0
							l-0.76,0.44c-0.37,0.21-0.67,0.73-0.67,1.16v26.31c0,0.43,0.3,0.95,0.67,1.16l34.32,19.82c0.37,0.21,0.97,0.21,1.34,0
							l0.76-0.44c0.37-0.21,0.67-0.74,0.67-1.16L109.63,247.96z"/>
					</g>
				</g>
				<path id="XMLID_1027_" class="st1" d="M109.44,247.3l-1.9,1.1l-35.47-20.48c0.12-0.21,0.29-0.39,0.47-0.5l0.76-0.43
					c0.37-0.22,0.97-0.22,1.34,0l34.32,19.82C109.15,246.9,109.32,247.09,109.44,247.3z"/>
				<g id="XMLID_1025_">
					<g id="XMLID_1026_">
						<path class="st2" d="M107.38,276.01c0.04,0.01,0.08,0.01,0.13,0.01h-0.04C107.43,276.02,107.41,276.02,107.38,276.01z"/>
						<path class="st14" d="M107.54,248.39l-0.35,0.21c0.21,0.08,0.35,0.29,0.35,0.57v26.31c0,0.22-0.08,0.37-0.21,0.44
							c-0.09,0.04-0.2,0.05-0.32,0.01c-0.05-0.02-0.1-0.04-0.14-0.06l-34.33-19.82c-0.37-0.22-0.67-0.74-0.67-1.16v-26.31
							c0-0.22,0.08-0.46,0.2-0.67L107.54,248.39z"/>
					</g>
				</g>
				<path id="XMLID_623_" class="st12" d="M107.53,248.4l-15.9,5.94c-1.13,0.42-2.41,0-3.07-1.01l-2.55-3.91l-14.08-21.57
					l13.57,21.72l-13.64,5.34c0,0.22,0.08,0.46,0.21,0.67l13.47-5.95l2.97,4.75c0.68,1.09,2.06,1.51,3.23,0.99l2.11-0.93
					l13.47,21.49c0.13-0.07,0.21-0.22,0.21-0.44v-0.44L93.93,254.4L107.53,248.4z"/>
			</g>
			<g id="Letter_5_">
				<g id="XMLID_621_">
					<g id="XMLID_622_">
						<path id="XMLID_1023_" class="st0" d="M101.51,252.61c0-0.43-0.3-0.95-0.67-1.16l-34.32-19.82c-0.37-0.21-0.97-0.21-1.34,0
							l-0.76,0.44c-0.37,0.21-0.67,0.73-0.67,1.16v26.31c0,0.43,0.3,0.95,0.67,1.16l34.32,19.82c0.37,0.21,0.97,0.21,1.34,0
							l0.76-0.44c0.37-0.21,0.67-0.74,0.67-1.16L101.51,252.61z"/>
					</g>
				</g>
				<path id="XMLID_1020_" class="st1" d="M101.31,251.95l-1.9,1.1l-35.47-20.48c0.12-0.21,0.29-0.39,0.47-0.5l0.76-0.43
					c0.37-0.22,0.97-0.22,1.34,0l34.32,19.82C101.02,251.56,101.19,251.74,101.31,251.95z"/>
				<g id="XMLID_619_">
					<g id="XMLID_1016_">
						<path class="st2" d="M99.25,280.67c0.04,0.01,0.08,0.01,0.13,0.01h-0.04C99.3,280.68,99.28,280.68,99.25,280.67z"/>
						<path class="st14" d="M99.41,253.05l-0.35,0.21c0.21,0.08,0.35,0.29,0.35,0.57v26.31c0,0.22-0.08,0.37-0.21,0.44
							c-0.09,0.04-0.2,0.05-0.32,0.01c-0.05-0.02-0.1-0.04-0.14-0.06l-34.33-19.82c-0.37-0.22-0.67-0.74-0.67-1.16v-26.31
							c0-0.22,0.08-0.46,0.2-0.67L99.41,253.05z"/>
					</g>
				</g>
				<path id="XMLID_1003_" class="st12" d="M99.41,253.05l-15.9,5.94c-1.13,0.42-2.41,0-3.07-1.01l-2.55-3.91L63.81,232.5
					l13.57,21.72l-13.64,5.34c0,0.22,0.08,0.46,0.21,0.67l13.47-5.95l2.97,4.75c0.68,1.09,2.06,1.51,3.23,0.99l2.11-0.93
					l13.47,21.49c0.13-0.07,0.21-0.22,0.21-0.44v-0.44L85.8,259.06L99.41,253.05z"/>
			</g>
			<g id="Letter_4_">
				<g id="XMLID_617_">
					<g id="XMLID_942_">
						<path id="XMLID_618_" class="st0" d="M93.38,257.27c0-0.43-0.3-0.95-0.67-1.16l-34.32-19.82c-0.37-0.21-0.97-0.21-1.34,0
							l-0.76,0.44c-0.37,0.21-0.67,0.73-0.67,1.16v26.31c0,0.43,0.3,0.95,0.67,1.16l34.32,19.82c0.37,0.21,0.97,0.21,1.34,0
							l0.76-0.44c0.37-0.21,0.67-0.74,0.67-1.16L93.38,257.27z"/>
					</g>
				</g>
				<path id="XMLID_616_" class="st1" d="M93.19,256.61l-1.9,1.1l-35.47-20.48c0.12-0.21,0.29-0.39,0.47-0.5l0.76-0.43
					c0.37-0.22,0.97-0.22,1.34,0l34.32,19.82C92.9,256.22,93.07,256.4,93.19,256.61z"/>
				<g id="XMLID_614_">
					<g id="XMLID_615_">
						<path class="st2" d="M91.13,285.33c0.04,0.01,0.08,0.01,0.13,0.01h-0.04C91.18,285.33,91.16,285.33,91.13,285.33z"/>
						<path class="st14" d="M91.29,257.7l-0.35,0.21c0.21,0.08,0.35,0.29,0.35,0.57v26.31c0,0.22-0.08,0.37-0.21,0.44
							c-0.09,0.04-0.2,0.05-0.32,0.01c-0.05-0.02-0.1-0.04-0.14-0.06l-34.33-19.82c-0.37-0.22-0.67-0.74-0.67-1.16V237.9
							c0-0.22,0.08-0.46,0.2-0.67L91.29,257.7z"/>
					</g>
				</g>
				<path id="XMLID_613_" class="st12" d="M91.28,257.71l-15.9,5.94c-1.13,0.42-2.41,0-3.07-1.01l-2.55-3.91l-14.08-21.57
					l13.57,21.72l-13.64,5.34c0,0.22,0.08,0.46,0.21,0.67l13.47-5.95l2.97,4.75c0.68,1.09,2.06,1.51,3.23,0.99l2.11-0.93
					l13.47,21.49c0.13-0.07,0.21-0.22,0.21-0.44v-0.44l-13.61-20.64L91.28,257.71z"/>
			</g>
		</g>
		<g>
			<path class="st2" d="M108.55,238.04c-2.73-1.43-6.35-1.18-10.31,1.11c-4.45,2.56-8.46,7.19-11.27,12.51
				c-0.66,1.23-1.24,2.5-1.76,3.78c-1.55,3.86-2.45,7.9-2.45,11.68v22.18c-0.5,0-0.99-0.12-1.37-0.33L41.9,266.15
				c-0.75-0.44-1.37-1.51-1.37-2.38v-21.06c0-10.52,6.93-23.04,15.47-27.98c4.05-2.34,7.73-2.53,10.49-0.98l0.01-0.02L108.55,238.04
				z"/>
			<path class="st12" d="M108.55,238.04c-2.73-1.43-6.35-1.18-10.31,1.11c-4.45,2.56-8.46,7.19-11.27,12.51
				c-0.66,1.23-1.24,2.5-1.76,3.78c-1.55,3.86-2.45,7.9-2.45,11.68v22.18c-0.5,0-0.99-0.12-1.37-0.33L41.9,266.15
				c-0.75-0.44-1.37-1.51-1.37-2.38v-21.06c0-10.52,6.93-23.04,15.47-27.98c4.05-2.34,7.73-2.53,10.49-0.98l0.01-0.02L108.55,238.04
				z"/>
			<path class="st13" d="M41.9,266.15l39.49,22.81c0.38,0.21,0.87,0.33,1.37,0.33v-22.18c0-2.02,0.26-4.11,0.74-6.21l-42.24-24.39
				c-0.47,2.1-0.73,4.19-0.73,6.2v21.06C40.53,264.64,41.15,265.71,41.9,266.15z"/>
			<path class="st2" d="M85.21,255.43c-1.55,3.86-2.45,7.9-2.45,11.68v22.18c-0.17,0-0.34-0.02-0.5-0.05
				c-0.01-1.28-0.02-8.4-0.02-22.13c0-16.32,12.55-26.69,16-27.97c-4.45,2.56-8.46,7.19-11.27,12.51
				C86.31,252.88,85.73,254.15,85.21,255.43z"/>
			<path class="st11" d="M85.21,255.43c-1.55,3.86-2.45,7.9-2.45,11.68v22.18c-0.17,0-0.34-0.02-0.5-0.05
				c-0.01-1.28-0.02-8.4-0.02-22.13c0-16.32,12.55-26.69,16-27.97c-4.45,2.56-8.46,7.19-11.27,12.51
				C86.31,252.88,85.73,254.15,85.21,255.43z"/>
		</g>
		<path id="XMLID_607_" class="st2" d="M84.76,286.77c-0.23,0.13-0.41,0.02-0.41-0.24v-19.41c0-3.38,0.78-7.14,2.25-10.88
			c0.03-0.07,0.05-0.14,0.08-0.21c0.55-1.38,1.18-2.72,1.88-4c2.74-5.06,6.48-9.21,10.47-11.51c2.05-1.19,3.99-1.79,5.77-1.79
			c1.12,0,2.14,0.25,3.04,0.73c2.7,1.44,4.28,4.92,4.28,9.79v21.24c0,0.26-0.18,0.58-0.41,0.71l0.62,1.47
			c0.05-0.03,0.1-0.06,0.14-0.09c0.21-0.14,0.4-0.33,0.57-0.55c0,0,0,0,0-0.01c0.4-0.5,0.66-1.16,0.66-1.74v-21.05
			c0-5.63-1.99-9.55-5.15-11.21c-2.74-1.43-6.35-1.18-10.31,1.11c-4.45,2.56-8.46,7.19-11.27,12.51c-0.65,1.23-1.24,2.49-1.75,3.78
			c-1.55,3.86-2.45,7.9-2.45,11.68v22.17c0.08,0,0.16,0,0.24-0.01c0.42-0.03,0.82-0.14,1.14-0.32L84.76,286.77z"/>
		<path id="XMLID_630_" class="st13" d="M84.76,286.77c-0.23,0.13-0.41,0.02-0.41-0.24v-19.41c0-3.38,0.78-7.14,2.25-10.88
			c0.03-0.07,0.05-0.14,0.08-0.21c0.55-1.38,1.18-2.72,1.88-4c2.74-5.06,6.48-9.21,10.47-11.51c2.05-1.19,3.99-1.79,5.77-1.79
			c1.12,0,2.14,0.25,3.04,0.73c2.7,1.44,4.28,4.92,4.28,9.79v21.24c0,0.26-0.18,0.58-0.41,0.71l0.62,1.47
			c0.05-0.03,0.1-0.06,0.14-0.09c0.21-0.14,0.4-0.33,0.57-0.55c0,0,0,0,0-0.01c0.4-0.5,0.66-1.16,0.66-1.74v-21.05
			c0-5.63-1.99-9.55-5.15-11.21c-2.74-1.43-6.35-1.18-10.31,1.11c-4.45,2.56-8.46,7.19-11.27,12.51c-0.65,1.23-1.24,2.49-1.75,3.78
			c-1.55,3.86-2.45,7.9-2.45,11.68v22.17c0.08,0,0.16,0,0.24-0.01c0.42-0.03,0.82-0.14,1.14-0.32L84.76,286.77z"/>
	</g>
</g>
<g id="Envelopes">
	<g id="Envelope_1_">
		<g id="Letter_1_">
			<g id="XMLID_679_">
				<g id="XMLID_682_">
					<path id="XMLID_684_" class="st2" d="M178.94,229.88c0-1.66,1.16-3.67,2.6-4.5l128.17-74c1.43-0.83,3.76-0.83,5.2,0l2.93,1.69
						c1.43,0.83,2.6,2.84,2.6,4.5v101.88c0,1.65-1.17,3.67-2.6,4.5l-128.17,74c-1.43,0.83-3.77,0.83-5.2,0l-2.93-1.69
						c-1.43-0.82-2.6-2.85-2.6-4.5L178.94,229.88z"/>
				</g>
			</g>
			<g id="XMLID_880_" class="st15">
				<g id="XMLID_901_">
					<path id="XMLID_904_" class="st4" d="M178.94,229.88c0-1.66,1.16-3.67,2.6-4.5l128.17-74c1.43-0.83,3.76-0.83,5.2,0l2.93,1.69
						c1.43,0.83,2.6,2.84,2.6,4.5v101.88c0,1.65-1.17,3.67-2.6,4.5l-128.17,74c-1.43,0.83-3.77,0.83-5.2,0l-2.93-1.69
						c-1.43-0.82-2.6-2.85-2.6-4.5L178.94,229.88z"/>
				</g>
			</g>
			<path id="XMLID_677_" class="st2" d="M179.7,227.32l7.37,4.25l132.6-76.56c-0.47-0.81-1.12-1.52-1.83-1.94l-2.94-1.68
				c-1.43-0.84-3.76-0.84-5.19,0l-128.17,73.99C180.82,225.79,180.16,226.51,179.7,227.32z"/>
			<path id="XMLID_687_" class="st16" d="M179.7,227.32l7.37,4.25l132.6-76.56c-0.47-0.81-1.12-1.52-1.83-1.94l-2.94-1.68
				c-1.43-0.84-3.76-0.84-5.19,0l-128.17,73.99C180.82,225.79,180.16,226.51,179.7,227.32z"/>
			<path id="XMLID_676_" class="st17" d="M178.94,229.87v101.88c0,1.66,1.17,3.67,2.61,4.5l2.93,1.7c0.22,0.12,0.45,0.23,0.71,0.32
				c0.33,0.11,0.69,0.2,1.07,0.25c0.68,0.09,1.39,0.06,2.05-0.07c0.17-0.04,0.35-0.08,0.51-0.13c0.11-0.04,0.23-0.07,0.32-0.11
				c-0.48,0.17-0.91,0.13-1.26-0.05c-0.49-0.26-0.8-0.85-0.8-1.71V234.57c0-1.07,0.54-1.88,1.35-2.21l-1.35-0.79l-7.37-4.25
				C179.23,228.13,178.94,229.05,178.94,229.87z"/>
			<path id="XMLID_919_" class="st18" d="M178.94,229.87v101.88c0,1.66,1.17,3.67,2.61,4.5l2.93,1.7c0.22,0.12,0.45,0.23,0.71,0.32
				c0.33,0.11,0.69,0.2,1.07,0.25c0.68,0.09,1.39,0.06,2.05-0.07c0.17-0.04,0.35-0.08,0.51-0.13c0.11-0.04,0.23-0.07,0.32-0.11
				c-0.48,0.17-0.91,0.13-1.26-0.05c-0.49-0.26-0.8-0.85-0.8-1.71V234.57c0-1.07,0.54-1.88,1.35-2.21l-1.35-0.79l-7.37-4.25
				C179.23,228.13,178.94,229.05,178.94,229.87z"/>
			<path id="XMLID_675_" class="st19" d="M187.07,231.57l61.55,23c4.39,1.63,9.32,0.01,11.87-3.91l9.88-15.14l49.29-80.5
				l-47.32,81.07l48.08,23.41c-0.01,0.84-0.32,1.77-0.81,2.59l-47.42-25.77l-11.49,18.38c-2.64,4.22-7.98,5.86-12.52,3.85
				l-8.18-3.61l-52.14,83.22c-0.49-0.26-0.8-0.85-0.8-1.71v-1.7l52.69-79.92L187.07,231.57z"/>
			<path id="XMLID_920_" class="st18" d="M187.07,231.57l61.55,23c4.39,1.63,9.32,0.01,11.87-3.91l9.88-15.14l49.29-80.5
				l-47.32,81.07l48.08,23.41c-0.01,0.84-0.32,1.77-0.81,2.59l-47.42-25.77l-11.49,18.38c-2.64,4.22-7.98,5.86-12.52,3.85
				l-8.18-3.61l-52.14,83.22c-0.49-0.26-0.8-0.85-0.8-1.71v-1.7l52.69-79.92L187.07,231.57z"/>
		</g>
	</g>
	<g id="Envelope">
		<g id="Letter_2_">
			<g id="XMLID_670_">
				<g id="XMLID_671_">
					<path id="XMLID_672_" class="st2" d="M211.44,248.66c0-1.66,1.16-3.67,2.6-4.5l128.17-74c1.43-0.83,3.76-0.83,5.2,0l2.93,1.69
						c1.43,0.83,2.6,2.84,2.6,4.5v101.88c0,1.65-1.17,3.67-2.6,4.5l-128.17,74c-1.43,0.83-3.77,0.83-5.2,0l-2.93-1.69
						c-1.43-0.82-2.6-2.85-2.6-4.5L211.44,248.66z"/>
				</g>
			</g>
			<g id="XMLID_832_" class="st20">
				<g id="XMLID_833_">
					<path id="XMLID_860_" class="st4" d="M211.44,248.66c0-1.66,1.16-3.67,2.6-4.5l128.17-74c1.43-0.83,3.76-0.83,5.2,0l2.93,1.69
						c1.43,0.83,2.6,2.84,2.6,4.5v101.88c0,1.65-1.17,3.67-2.6,4.5l-128.17,74c-1.43,0.83-3.77,0.83-5.2,0l-2.93-1.69
						c-1.43-0.82-2.6-2.85-2.6-4.5L211.44,248.66z"/>
				</g>
			</g>
			<path id="XMLID_669_" class="st2" d="M212.19,246.1l7.37,4.25l132.6-76.56c-0.47-0.81-1.12-1.52-1.83-1.94l-2.94-1.68
				c-1.43-0.84-3.76-0.84-5.19,0l-128.17,73.99C213.31,244.57,212.66,245.29,212.19,246.1z"/>
			<path id="XMLID_686_" class="st21" d="M212.19,246.1l7.37,4.25l132.6-76.56c-0.47-0.81-1.12-1.52-1.83-1.94l-2.94-1.68
				c-1.43-0.84-3.76-0.84-5.19,0l-128.17,73.99C213.31,244.57,212.66,245.29,212.19,246.1z"/>
			<path id="XMLID_668_" class="st13" d="M211.43,248.65v101.88c0,1.66,1.17,3.67,2.61,4.5l2.93,1.7c0.22,0.12,0.45,0.23,0.71,0.32
				c0.33,0.11,0.69,0.2,1.07,0.25c0.68,0.09,1.39,0.06,2.05-0.07c0.17-0.04,0.34-0.09,0.5-0.14c0.11-0.04,0.21-0.07,0.31-0.12
				c-0.48,0.17-0.9,0.15-1.24-0.02c-0.49-0.26-0.8-0.85-0.8-1.71V253.35c0-1.07,0.54-1.88,1.35-2.21l-1.35-0.79l-7.37-4.25
				C211.73,246.91,211.43,247.83,211.43,248.65z"/>
			<path id="XMLID_667_" class="st22" d="M219.57,250.35l61.55,23c4.39,1.63,9.32,0.01,11.87-3.91l9.88-15.14l49.29-80.5
				l-47.32,81.07l48.08,23.41c-0.01,0.84-0.32,1.77-0.81,2.59L304.7,255.1l-11.49,18.38c-2.64,4.22-7.98,5.86-12.52,3.85l-8.18-3.61
				l-52.14,83.22c-0.49-0.26-0.8-0.85-0.8-1.71v-1.7l52.69-79.92L219.57,250.35z"/>
			<path id="XMLID_921_" class="st18" d="M219.57,250.35l61.55,23c4.39,1.63,9.32,0.01,11.87-3.91l9.88-15.14l49.29-80.5
				l-47.32,81.07l48.08,23.41c-0.01,0.84-0.32,1.77-0.81,2.59L304.7,255.1l-11.49,18.38c-2.64,4.22-7.98,5.86-12.52,3.85l-8.18-3.61
				l-52.14,83.22c-0.49-0.26-0.8-0.85-0.8-1.71v-1.7l52.69-79.92L219.57,250.35z"/>
		</g>
	</g>
</g>
<g id="Open_Envelope_1_">
	<g id="Open_Envelope">
		<g id="XMLID_1080_">
			<path id="XMLID_1109_" class="st2" d="M244.2,268.26l133.38-77.01l5.34,3.08c1.38,0.8,2.51,2.75,2.51,4.35v98.39
				c0,1.59-1.13,3.55-2.51,4.35l-128.36,74.11c-1.38,0.8-3.64,0.8-5.02,0l-2.83-1.63c-1.38-0.8-2.51-2.75-2.51-4.35L244.2,268.26z"
				/>
			<path id="XMLID_1108_" class="st12" d="M244.2,268.26l133.38-77.01l5.34,3.08c1.38,0.8,2.51,2.75,2.51,4.35v98.39
				c0,1.59-1.13,3.55-2.51,4.35l-128.36,74.11c-1.38,0.8-3.64,0.8-5.02,0l-2.83-1.63c-1.38-0.8-2.51-2.75-2.51-4.35L244.2,268.26z"
				/>
			<path id="XMLID_1107_" class="st2" d="M376.85,182.6l0.55-0.3l-2.07-1.2v0c-0.18-0.1-0.36-0.19-0.55-0.26l-58.7-21.75
				c-1.55-0.58-3.57,0.07-4.51,1.43l-65.66,95.89c-0.94,1.37-1.69,3.82-1.69,5.47c0,2.74,0,6.37,0,6.37l2.04,1.18l131.35-78.19
				v-6.37C377.58,184.1,377.3,183.3,376.85,182.6z"/>
			<path id="XMLID_1106_" class="st13" d="M314.28,160.98c-0.26,0.2-0.49,0.45-0.68,0.72l-65.67,95.89
				c-0.48,0.71-0.92,1.71-1.22,2.74l-2.04-1.18c0.15-0.5,0.33-0.99,0.53-1.45c0.01-0.02,0.01-0.03,0.02-0.04
				c0.09-0.2,0.18-0.39,0.28-0.58c0.02-0.03,0.03-0.06,0.05-0.09c0.11-0.21,0.23-0.41,0.35-0.58l65.66-95.89
				c0.1-0.15,0.21-0.27,0.33-0.4c0.11-0.11,0.23-0.22,0.35-0.32L314.28,160.98z"/>
			<path id="XMLID_1105_" class="st23" d="M377.37,182.29c-0.18-0.11-0.37-0.2-0.56-0.27l-58.71-21.76
				c-1.24-0.46-2.78-0.14-3.82,0.72l-2.04-1.18c1.05-0.85,2.58-1.18,3.83-0.72l58.7,21.75c0.19,0.07,0.37,0.16,0.55,0.27
				L377.37,182.29z"/>
			<g id="XMLID_1093_">
				<path id="XMLID_1104_" class="st2" d="M245.55,256.99c0.11-0.21,0.23-0.4,0.35-0.58C245.78,256.59,245.66,256.78,245.55,256.99z
					"/>
				<path id="XMLID_1103_" class="st2" d="M311.89,160.12c0.11-0.11,0.23-0.22,0.35-0.32C312.12,159.9,312,160.01,311.89,160.12z"/>
				<path id="XMLID_1100_" class="st2" d="M244.67,259.15c0.15-0.5,0.33-1,0.53-1.45C245,258.16,244.82,258.65,244.67,259.15z"/>
				<path id="XMLID_1099_" class="st2" d="M245.22,257.66c0.09-0.2,0.18-0.39,0.28-0.57C245.4,257.27,245.31,257.46,245.22,257.66z"
					/>
				<path id="XMLID_1098_" class="st12" d="M245.2,257.7c0.01-0.01,0.01-0.03,0.02-0.04C245.21,257.67,245.21,257.69,245.2,257.7z"
					/>
				<polygon id="XMLID_1097_" class="st12" points="244.67,259.15 244.67,259.15 244.67,259.15 				"/>
				<polygon id="XMLID_1096_" class="st12" points="312.24,159.8 312.24,159.8 312.24,159.8 				"/>
				<path id="XMLID_1095_" class="st12" d="M245.5,257.08c0.02-0.03,0.03-0.07,0.05-0.1C245.53,257.02,245.51,257.05,245.5,257.08z"
					/>
				<path id="XMLID_1094_" class="st12" d="M311.56,160.52c0.1-0.14,0.21-0.27,0.33-0.4C311.77,160.24,311.66,160.37,311.56,160.52z
					"/>
			</g>
			<path id="XMLID_1092_" class="st2" d="M313.6,161.7l-65.66,95.89c-0.94,1.37-1.69,3.82-1.69,5.47c0,2.74,0,6.37,0,6.37
				l133.38-77.01l0-6.36c0-1.66-1.26-3.47-2.81-4.04l-58.7-21.75C316.55,159.69,314.53,160.33,313.6,161.7z"/>
			<path id="XMLID_1091_" class="st18" d="M379.62,186.06c0-0.76-0.27-1.55-0.71-2.24l-132.2,76.51c0,0-0.01,0.01-0.01,0.02
				c-0.28,0.95-0.46,1.92-0.46,2.71c0,2.74,0,6.37,0,6.37l133.38-77.01L379.62,186.06z"/>
		</g>
		<g>
			<path class="st24" d="M373.92,159.03c0-0.69-0.24-1.17-0.63-1.4c-0.39-0.23-3.68-2.12-4.07-2.35c-0.39-0.23-0.93-0.19-1.53,0.15
				l-109.4,63.16c-1.2,0.69-2.17,2.37-2.17,3.75l0,131.02c0,0.69,0.24,1.17,0.63,1.4c0.39,0.23,3.67,2.12,4.06,2.35
				c0.39,0.23,0.93,0.19,1.53-0.15l109.4-63.16c1.2-0.69,2.17-2.37,2.17-3.75L373.92,159.03z"/>
			<path class="st9" d="M262.35,356.97l109.4-63.16c1.2-0.69,2.17-2.37,2.17-3.75l0-131.02c0-1.38-0.97-1.94-2.17-1.25l-109.4,63.16
				c-1.2,0.69-2.17,2.37-2.17,3.75l0,131.02C260.19,357.1,261.16,357.66,262.35,356.97z"/>
			<g id="XMLID_662_">
				<path id="XMLID_663_" class="st2" d="M332.47,232.96c-0.12,1.55-0.39,3-0.82,4.36c-0.43,1.36-0.96,2.58-1.58,3.66
					c-0.62,1.08-1.31,2.01-2.06,2.79c-0.76,0.78-1.52,1.36-2.29,1.76c-1.37,0.7-2.42,0.95-3.15,0.76c-0.73-0.19-1.28-0.53-1.63-1.02
					c-0.24,0.51-0.48,1.03-0.75,1.56c-0.26,0.53-0.59,1.05-0.99,1.57c-0.4,0.52-0.89,1.02-1.47,1.52c-0.58,0.49-1.3,0.96-2.15,1.39
					c-1.01,0.52-1.92,0.7-2.72,0.54c-0.8-0.16-1.47-0.63-2.02-1.41c-0.55-0.78-0.95-1.84-1.2-3.18c-0.26-1.34-0.35-2.93-0.27-4.77
					c0.07-1.84,0.29-3.59,0.65-5.25c0.36-1.66,0.84-3.16,1.43-4.52c0.59-1.36,1.3-2.55,2.14-3.56c0.83-1.01,1.76-1.78,2.77-2.3
					c1.12-0.57,1.95-0.75,2.48-0.53c0.53,0.22,0.96,0.62,1.28,1.2l0.02-0.54c0.02-0.44,0.14-0.87,0.37-1.31
					c0.23-0.43,0.5-0.73,0.8-0.88l2.14-1.09c0.3-0.15,0.56-0.13,0.76,0.08c0.2,0.21,0.3,0.53,0.28,0.97l-0.51,12.79
					c-0.04,0.96,0.14,1.59,0.55,1.9c0.4,0.3,0.88,0.32,1.43,0.03c0.55-0.28,1.03-0.79,1.45-1.54c0.42-0.74,0.68-1.77,0.79-3.08
					c0.1-1.11,0.17-2.25,0.22-3.44c0.05-1.18,0.05-2.27,0.01-3.27c-0.08-2.12-0.34-3.88-0.79-5.3c-0.45-1.42-1.12-2.44-1.99-3.07
					c-0.87-0.63-1.99-0.87-3.35-0.73c-1.36,0.15-2.99,0.7-4.88,1.67c-1.59,0.81-3.03,1.87-4.31,3.18c-1.29,1.31-2.41,2.78-3.36,4.42
					c-0.95,1.65-1.73,3.43-2.35,5.35c-0.61,1.92-1.04,3.89-1.28,5.89c-0.08,0.55-0.14,1.26-0.19,2.12
					c-0.05,0.87-0.09,1.77-0.13,2.71c-0.04,0.94-0.07,1.85-0.09,2.72c-0.02,0.87-0.02,1.58,0.02,2.11c0.09,1.84,0.37,3.42,0.86,4.74
					c0.48,1.32,1.16,2.34,2.01,3.06c0.86,0.72,1.9,1.09,3.14,1.1c1.23,0.02,2.65-0.38,4.24-1.2c1.12-0.57,2.1-1.15,2.93-1.73
					c0.83-0.58,1.56-1.17,2.18-1.77c0.63-0.6,1.17-1.18,1.62-1.74c0.45-0.56,0.86-1.12,1.23-1.66c0.31-0.47,0.56-0.83,0.75-1.06
					c0.18-0.23,0.43-0.42,0.73-0.58l3.04-1.56c0.3-0.15,0.56-0.14,0.78,0.04c0.22,0.18,0.31,0.54,0.26,1.07
					c-0.01,0.32-0.12,0.67-0.32,1.05c-0.61,1.14-1.3,2.33-2.06,3.58c-0.76,1.25-1.66,2.48-2.7,3.68c-1.04,1.2-2.27,2.38-3.68,3.53
					c-1.42,1.15-3.08,2.22-5,3.21c-2.38,1.22-4.46,1.78-6.23,1.69c-1.77-0.1-3.24-0.7-4.42-1.8c-1.18-1.1-2.08-2.62-2.7-4.56
					c-0.62-1.94-0.96-4.13-1.03-6.56c0-0.55,0.01-1.29,0.03-2.22c0.02-0.93,0.06-1.91,0.1-2.93c0.04-1.02,0.09-1.99,0.14-2.92
					c0.05-0.93,0.1-1.66,0.15-2.19c0.24-2.55,0.75-5.16,1.54-7.82c0.79-2.66,1.85-5.19,3.18-7.6c1.33-2.41,2.93-4.61,4.79-6.6
					c1.86-1.99,3.99-3.6,6.37-4.82c2.8-1.43,5.15-2.14,7.05-2.14c1.91,0.01,3.45,0.55,4.63,1.63c1.18,1.08,2.03,2.63,2.55,4.64
					c0.52,2.01,0.82,4.29,0.87,6.85c0.01,1.01-0.01,2.21-0.06,3.59C332.64,230.61,332.56,231.85,332.47,232.96z M313.69,240.28
					c-0.08,1.96,0.12,3.35,0.6,4.16c0.48,0.82,1.19,0.98,2.15,0.49c1.01-0.52,1.8-1.44,2.35-2.76c0.55-1.32,0.86-2.98,0.94-4.98
					c0.08-1.96-0.12-3.36-0.58-4.2c-0.46-0.84-1.2-1-2.22-0.48c-0.96,0.49-1.72,1.42-2.29,2.79
					C314.09,236.65,313.77,238.31,313.69,240.28z"/>
			</g>
			<path class="st1" d="M260.18,355.72c0,0.61,0.19,1.06,0.51,1.32c-0.73-0.41-3.57-2.06-3.93-2.26c-0.4-0.23-0.64-0.71-0.64-1.4
				V222.35c0-0.69,0.24-1.45,0.64-2.13l4.06,2.34c-0.4,0.68-0.64,1.45-0.64,2.14V355.72z"/>
		</g>
		<g id="XMLID_944_">
			<path id="XMLID_1018_" class="st2" d="M382.05,298.38c-0.04,0.07-0.08,0.13-0.14,0.2l-55.58-17.62
				c-4.37-1.94-9.48-0.36-12.01,3.7l-59.42,88.32l-2.2,1.27l-0.02,0.01c-0.67,0.37-1.26,0.42-1.7,0.19l61.11-91.03
				c2.54-4.06,7.66-5.64,12.02-3.71L382.05,298.38z"/>
			<path id="XMLID_1017_" class="st25" d="M308.84,293.32l0.14-0.12l-54.09,79.77l-2.2,1.27l-0.02,0.01
				c-0.66,0.37-1.26,0.41-1.7,0.19l55.73-82.4L308.84,293.32z"/>
			<path id="XMLID_1013_" class="st25" d="M382.05,298.38c-0.04,0.07-0.08,0.13-0.14,0.2l-55.59-17.63
				c-4.36-1.94-9.47-0.36-12.01,3.7l-2.2-1.28c2.54-4.04,7.64-5.6,12-3.68L382.05,298.38z"/>
			<path id="XMLID_1011_" class="st2" d="M385.38,198.05h-0.01c-0.12-0.72-0.5-0.92-0.99-0.58c-0.19,0.13-0.41,0.35-0.64,0.66
				l-0.28,0.39l-54.85,83.39l-8.19,11.41c-0.92,1.3-2.94,2.05-4.51,1.69l-7.07-1.68l-53.97-19.87c-0.39-0.09-0.76-0.1-1.1-0.04
				c-0.14,0.03-0.28,0.07-0.41,0.13l2.03-1.18l51.74,18.96l6.81,2.43c1.56,0.37,3.58-0.38,4.51-1.69l8.19-11.4l55.12-83.78
				c0.18-0.25,0.4-0.43,0.62-0.57l-4.77-2.75l2-1.15l3.3,1.9C384.12,195.03,385.13,196.6,385.38,198.05z"/>
			<path id="XMLID_1010_" class="st25" d="M328.61,281.9l-8.19,11.41c-0.92,1.3-2.94,2.05-4.51,1.69l-7.07-1.68l0.14-0.12l0.34-0.54
				l4.63,1.1c1.56,0.37,3.58-0.38,4.51-1.69l8.11-11.28L328.61,281.9z"/>
			<path id="XMLID_1009_" class="st13" d="M382.92,194.32l-3.3-1.9l-2,1.15l4.77,2.75c0,0,0.01,0.01,0.01,0.01l-0.01,0
				c-0.24,0.15-0.45,0.34-0.62,0.57l-55.12,83.77l-0.08,0.11v0.01l2.04,1.11l54.85-83.39l0.28-0.39c0.23-0.31,0.45-0.53,0.64-0.66
				c0.49-0.34,0.87-0.14,0.99,0.58h0.01C385.13,196.59,384.12,195.02,382.92,194.32z"/>
			<path id="XMLID_1008_" class="st2" d="M255.97,275.05l-11.77-6.8l0,101.29c0,1.59,1.13,3.55,2.51,4.35l2.83,1.63
				c1.38,0.8,3.64,0.8,5.02,0l1.41-0.82V275.05z"/>
			<path id="XMLID_1007_" class="st5" d="M255.97,275.05l-11.77-6.8l0,101.29c0,1.59,1.13,3.55,2.51,4.35l2.83,1.63
				c1.38,0.8,3.64,0.8,5.02,0l1.41-0.82V275.05z"/>
			<path id="XMLID_1005_" class="st2" d="M385.43,198.68v98.39c0,0.83-0.3,1.74-0.78,2.54c-0.4,0.66-0.9,1.25-1.47,1.65l-0.1,0.05
				c-0.06,0.04-0.1,0.08-0.16,0.11l-128.36,74.1l-0.02,0.01c-0.67,0.38-1.27,0.43-1.71,0.2c-0.39-0.2-0.66-0.61-0.75-1.2
				c-0.02-0.14-0.03-0.29-0.03-0.45v-98.4c0-1.59,1.25-2.59,2.82-2.22l53.97,19.87l7.07,1.68c1.57,0.36,3.59-0.39,4.51-1.69
				l8.19-11.41l54.85-83.39l0.28-0.39C384.67,196.84,385.43,197.08,385.43,198.68z"/>
			<path id="XMLID_1004_" class="st2" d="M382.92,301.42c0.06-0.03,0.11-0.07,0.16-0.11l0.1-0.06c0.57-0.4,1.07-0.99,1.47-1.64
				c0.47-0.79,0.77-1.69,0.78-2.5l-56.81-15.21l38.05,28.9L382.92,301.42z"/>
			<path id="XMLID_1000_" class="st12" d="M382.92,301.42c0.06-0.03,0.11-0.07,0.16-0.11l0.1-0.06c0.57-0.4,1.07-0.99,1.47-1.64
				c0.47-0.79,0.77-1.69,0.78-2.5l-56.81-15.21l38.05,28.9L382.92,301.42z"/>
			<path id="XMLID_999_" class="st2" d="M252.05,374.07c0,0.83,0.3,1.4,0.78,1.65c0.44,0.23,1.04,0.18,1.71-0.19l0.02-0.01
				l44.19-25.51l10.09-56.69l-56.79,79.12L252.05,374.07z"/>
			<path id="XMLID_998_" class="st5" d="M314.29,284.64l-61.46,91.08c-0.48-0.25-0.78-0.82-0.78-1.65l0-1.63l60.04-89.04
				c0-0.01,0.01-0.02,0.02-0.03L314.29,284.64z"/>
			<path id="XMLID_992_" class="st2" d="M384.65,299.61c-0.4,0.66-0.9,1.25-1.47,1.64l-0.1,0.06l-128.52,74.21l-0.02,0.01
				c-0.67,0.38-1.27,0.42-1.71,0.19l61.47-91.1c2.55-4.07,7.69-5.65,12.08-3.71L384.65,299.61z"/>
			<path id="XMLID_966_" class="st5" d="M244.67,259.15l2.04,1.18c-0.29,0.96-0.47,1.94-0.47,2.74c0,2.74,0,6.36,0,6.36l-2.04-1.18
				c0,0,0-3.63,0-6.37C244.2,261.09,244.38,260.11,244.67,259.15z"/>
			<polygon id="XMLID_946_" class="st2" points="255.4,272.37 253.36,273.55 251.3,272.36 246.23,269.44 248.2,268.27 			"/>
			<path id="XMLID_945_" class="st13" d="M255.49,272.41l-7.28-4.14l-1.97,1.17l5.07,2.92l2.06,1.19l0.02-0.01
				c0.12-0.05,0.25-0.09,0.39-0.12c0.34-0.06,0.71-0.05,1.1,0.04l4.1,1.51l47.11,17.34l0.74-1.09L255.49,272.41z"/>
		</g>
	</g>
</g>
<g id="Clouds">
	<g id="Clouds_5_">
		<g id="Cloud_5_">
			<path id="XMLID_1112_" class="st24" d="M145.03,102.07l-7.62,4.4c0.04-0.34,0.06-0.68,0.06-1.01v-2.21
				c0-3.93-2.76-5.52-6.16-3.56c-1.38,0.8-2.64,2.06-3.67,3.53c-0.56-4.94-4.43-6.78-9.14-4.06c-5.09,2.94-9.21,10.08-9.21,15.96
				v3.3c0,1.52,0.28,2.8,0.78,3.83l-6.33,3.65c-1.89,1.09-3.42,3.74-3.42,5.92c0,2.18,1.53,3.06,3.42,1.97l41.28-23.84
				c1.89-1.09,3.42-3.74,3.42-5.92C148.44,101.87,146.91,100.99,145.03,102.07z"/>
		</g>
		<g id="Cloud_4_">
			<path id="XMLID_1110_" class="st24" d="M108.14,76.96l-9.38,5.41c0.05-0.42,0.08-0.83,0.08-1.24v-2.72
				c0-4.84-3.39-6.79-7.58-4.38c-1.7,0.98-3.26,2.53-4.52,4.35c-0.69-6.08-5.46-8.34-11.25-5C69.23,77,64.15,85.8,64.15,93.03v4.06
				c0,1.87,0.35,3.45,0.96,4.71l-7.79,4.5c-2.32,1.34-4.21,4.6-4.21,7.28c0,2.68,1.88,3.77,4.21,2.43l50.82-29.34
				c2.32-1.34,4.21-4.6,4.21-7.28C112.35,76.7,110.47,75.62,108.14,76.96z"/>
		</g>
	</g>
</g>
<g id="Paper_Plane_1_">
	<g id="Paper_Plane">
		<polygon id="XMLID_1116_" class="st2" points="404.96,164.72 440.33,142.07 455.92,147.07 		"/>
		<polygon id="XMLID_1115_" class="st2" points="404.96,164.72 435.53,139.22 428.74,131.38 		"/>
		<polygon id="XMLID_1114_" class="st2" points="435.53,139.22 435.53,145.14 404.96,164.72 		"/>
		<polygon id="XMLID_1113_" class="st26" points="435.53,139.22 435.53,145.14 404.96,164.72 		"/>
		<g id="XMLID_1111_">
			<path class="st1" d="M440.63,138.73c-0.2,0-0.4-0.08-0.55-0.24c-0.28-0.3-0.26-0.78,0.04-1.06c1.05-0.97,2.02-2.03,2.89-3.15
				c0.25-0.33,0.72-0.39,1.05-0.13c0.33,0.25,0.39,0.72,0.13,1.05c-0.92,1.18-1.94,2.31-3.06,3.34
				C440.99,138.66,440.81,138.73,440.63,138.73z M446.26,131.26c-0.11,0-0.23-0.03-0.33-0.08c-0.37-0.19-0.52-0.64-0.33-1.01
				c0.87-1.73,1.53-3.57,1.98-5.46c0.09-0.4,0.5-0.65,0.9-0.56c0.4,0.1,0.65,0.5,0.56,0.9c-0.47,2.01-1.18,3.96-2.1,5.79
				C446.8,131.11,446.53,131.26,446.26,131.26z M448.99,120.69c-0.01,0-0.02,0-0.03,0c-0.41-0.02-0.73-0.37-0.72-0.78
				c0.02-0.4,0.03-0.81,0.03-1.21c0-1.53-0.13-3.08-0.39-4.61c-0.07-0.41,0.21-0.8,0.61-0.86c0.4-0.07,0.79,0.21,0.86,0.61
				c0.27,1.61,0.41,3.25,0.41,4.86c0,0.43-0.01,0.85-0.03,1.28C449.72,120.38,449.39,120.69,448.99,120.69z M447.38,109.88
				c-0.31,0-0.6-0.19-0.71-0.5c-0.63-1.81-1.44-3.61-2.42-5.33c-0.2-0.36-0.08-0.82,0.28-1.02c0.36-0.21,0.82-0.08,1.02,0.28
				c1.02,1.8,1.88,3.68,2.54,5.58c0.14,0.39-0.07,0.82-0.46,0.95C447.54,109.86,447.46,109.88,447.38,109.88z M442.12,100.27
				c-0.22,0-0.45-0.1-0.59-0.29c-1.17-1.52-2.5-2.99-3.94-4.36c-0.3-0.29-0.31-0.76-0.03-1.06c0.28-0.3,0.76-0.31,1.06-0.03
				c1.5,1.43,2.88,2.95,4.1,4.53c0.25,0.33,0.19,0.8-0.14,1.05C442.44,100.22,442.28,100.27,442.12,100.27z M434.29,92.59
				c-0.16,0-0.32-0.05-0.45-0.15c-1.53-1.16-3.19-2.25-4.92-3.25c-0.36-0.21-0.48-0.67-0.27-1.02c0.21-0.36,0.66-0.48,1.02-0.27
				c1.79,1.03,3.5,2.16,5.08,3.36c0.33,0.25,0.4,0.72,0.15,1.05C434.74,92.49,434.52,92.59,434.29,92.59z M355.7,89.69
				c-0.26,0-0.51-0.13-0.65-0.38c-0.21-0.36-0.08-0.82,0.27-1.02c1.74-1,3.54-1.95,5.37-2.81c0.38-0.18,0.82-0.02,1,0.36
				c0.18,0.37,0.02,0.82-0.36,1c-1.79,0.84-3.56,1.77-5.26,2.75C355.95,89.66,355.82,89.69,355.7,89.69z M424.87,86.95
				c-0.11,0-0.22-0.02-0.33-0.07c-1.78-0.86-3.61-1.65-5.45-2.36c-0.39-0.15-0.58-0.58-0.43-0.97c0.15-0.39,0.58-0.58,0.97-0.43
				c1.88,0.72,3.75,1.53,5.56,2.41c0.37,0.18,0.53,0.63,0.35,1C425.42,86.8,425.15,86.95,424.87,86.95z M365.6,84.94
				c-0.3,0-0.58-0.18-0.7-0.48c-0.15-0.39,0.04-0.82,0.42-0.97c1.87-0.73,3.8-1.4,5.73-1.98c0.39-0.12,0.81,0.11,0.93,0.5
				c0.12,0.4-0.1,0.82-0.5,0.93c-1.89,0.57-3.78,1.22-5.61,1.94C365.79,84.92,365.69,84.94,365.6,84.94z M414.64,82.95
				c-0.07,0-0.15-0.01-0.22-0.03c-1.88-0.57-3.81-1.08-5.74-1.5c-0.4-0.09-0.66-0.49-0.57-0.89c0.09-0.41,0.49-0.66,0.89-0.57
				c1.97,0.43,3.94,0.94,5.86,1.53c0.4,0.12,0.62,0.54,0.5,0.94C415.26,82.74,414.96,82.95,414.64,82.95z M376.1,81.69
				c-0.34,0-0.65-0.23-0.73-0.58c-0.09-0.4,0.16-0.81,0.56-0.9c1.96-0.45,3.96-0.83,5.95-1.12c0.4-0.06,0.79,0.22,0.85,0.63
				c0.06,0.41-0.22,0.79-0.63,0.85c-1.95,0.29-3.92,0.66-5.84,1.1C376.21,81.69,376.16,81.69,376.1,81.69z M403.92,80.54
				c-0.04,0-0.07,0-0.11-0.01c-1.95-0.29-3.93-0.49-5.91-0.62c-0.41-0.03-0.73-0.38-0.7-0.8c0.03-0.41,0.38-0.73,0.8-0.7
				c2.01,0.13,4.04,0.34,6.02,0.63c0.41,0.06,0.69,0.44,0.63,0.85C404.61,80.27,404.28,80.54,403.92,80.54z M386.96,80.01
				c-0.39,0-0.71-0.3-0.75-0.69c-0.03-0.41,0.27-0.77,0.69-0.81c2.01-0.16,4.04-0.25,6.05-0.25h0c0.41,0,0.75,0.33,0.75,0.75
				c0,0.41-0.33,0.75-0.75,0.75c-1.97,0-3.96,0.09-5.93,0.25C387,80.01,386.98,80.01,386.96,80.01z"/>
		</g>
	</g>
</g>
</svg>
