<?xml version="1.0" encoding="utf-8"?>
<!-- Generator: Adobe Illustrator 25.0.0, SVG Export Plug-In . SVG Version: 6.00 Build 0)  -->
<svg version="1.1" id="Capa_1" xmlns="http://www.w3.org/2000/svg" xmlns:xlink="http://www.w3.org/1999/xlink" x="0px" y="0px"
	 viewBox="0 0 297 297" style="enable-background:new 0 0 297 297;" xml:space="preserve">
<style type="text/css">
	.st0{display:none;}
	.st1{display:inline;}
	.st2{display:none;fill:#FFFFFF;}
</style>
<g class="st0">
	<path class="st1" d="M126.3,95.4h12.4v12.4c0,5.5,4.4,9.9,9.9,9.9s9.9-4.4,9.9-9.9V95.4h12.4c5.5,0,9.9-4.4,9.9-9.9
		c0-5.5-4.4-9.9-9.9-9.9h-12.4V63.3c0-5.5-4.4-9.9-9.9-9.9s-9.9,4.4-9.9,9.9v12.4h-12.4c-5.5,0-9.9,4.4-9.9,9.9
		C116.4,91,120.8,95.4,126.3,95.4z"/>
	<path class="st1" d="M211.5,0h-126C69.8,0,57.1,12.7,57.1,28.4v240.2c0,15.7,12.7,28.4,28.4,28.4h126c15.7,0,28.4-12.7,28.4-28.4
		V28.4C239.9,12.7,227.2,0,211.5,0z M76.8,187.1h21.5c3.9,0,7.5-2.3,9-5.9l3.5-7.9l16,36.2c1.6,3.6,5.1,5.9,9,5.9s7.5-2.3,9-5.9
		l5.2-11.8l2.6,3.9c1.9,2.9,5.2,4.6,8.7,4.4c3.5-0.2,6.6-2.2,8.2-5.2l15.5-29.2l4.3,9.7c1.6,3.6,5.1,5.9,9,5.9h21.5v41.2H76.8V187.1
		z M85.5,19.8h126c4.8,0,8.6,3.9,8.6,8.6v138.9h-15.1l-9.9-22.4c-1.5-3.5-4.9-5.7-8.7-5.9c-3.8-0.2-7.3,1.9-9.1,5.2l-17.3,32.5
		l-3.4-5.1c-2-3-5.5-4.7-9.1-4.4c-3.6,0.3-6.7,2.5-8.2,5.8l-3.5,7.9l-16-36.2c-1.6-3.6-5.1-5.9-9-5.9s-7.5,2.3-9,5.9l-9.9,22.4H76.8
		V28.4C76.8,23.6,80.7,19.8,85.5,19.8z M211.5,277.2h-126c-4.8,0-8.6-3.9-8.6-8.6v-20.5h143.3v20.5
		C220.2,273.4,216.3,277.2,211.5,277.2z"/>
	<path class="st1" d="M156.7,253h-16.3c-5.5,0-9.9,4.4-9.9,9.9s4.4,9.9,9.9,9.9h16.3c5.5,0,9.9-4.4,9.9-9.9S162.1,253,156.7,253z"/>
</g>
<g>
	<path class="st2" d="M216.4,0c26.9,0,53.7,0,80.6,0c0,99,0,198,0,297c-26.9,0-53.8,0-80.6,0c12.4-4.8,15.4-9.3,15.4-22.9
		c0-21.7,0-43.5,0-65.2c0-4.7-1.4-6.8-4.5-6.8c-2.9,0.1-4.3,2.1-4.3,6.6c0,14.5,0,29,0,43.5c0,1.1,0,2.2,0,3.3c-50,0-99.6,0-149.2,0
		c0-71.5,0-142.9,0-214.2c49.8,0,99.3,0,149.2,0c0,1.4,0,2.6,0,3.9c0,45.7,0,91.4,0,137.2c0,1.3,0,2.7,0.2,4c0.4,2,1.8,3.2,3.8,3.3
		c2.2,0.1,3.7-0.9,4.3-3.1c0.3-1,0.3-2.1,0.3-3.2c0-54.5,0.1-109-0.1-163.5c0-3.4-0.9-6.9-2.2-10C227.1,4.3,222,1.7,216.4,0z
		 M148,114.6c-1.9-3.7-3.1-6.8-5-9.6c-0.9-1.3-2.9-2.5-4.4-2.4c-1.3,0.1-2.7,1.8-3.6,3.1c-0.6,0.9-0.6,2.2-0.9,3.3
		c-1.4,5.5-2.8,11-4.3,17.2c-0.5-1.5-0.7-2.1-0.9-2.7c-2.8-10.2-5.6-20.5-8.4-30.7c-0.6-2.3-1.7-4.2-4.3-4.4c-2.8-0.1-4,1.7-4.8,4.2
		c-2.3,7.1-4.7,14.1-7,21.2c-0.6,1.9-1.5,2.6-3.5,2.5c-3.9-0.2-7.7-0.1-11.6,0c-3.6,0.1-5.7,1.8-5.6,4.5c0.1,2.6,2.1,4.2,5.5,4.2
		c5.3,0,10.6,0,15.9,0c3.9,0,4.8-0.7,6.1-4.4c1.3-3.9,2.6-7.8,3.9-11.7c0.9,1.1,1.2,2.1,1.5,3.2c2.9,10.6,5.8,21.2,8.7,31.8
		c0.6,2.2,1.6,4,4.1,4.2c2.8,0.2,4.2-1.5,4.8-4c1.7-6.7,3.4-13.5,5.1-20.2c0.3-1.3,0.7-2.6,1.3-4.5c1.3,2.6,2.3,4.6,3.3,6.5
		c1,2,2.2,3.7,4.7,3.6c2.6-0.1,3.6-1.9,4.4-3.9c2.6-6.5,5.2-13.1,7.8-19.6c1.5-3.8,3.1-7.6,4.8-12c0.4,1.3,0.6,2,0.8,2.7
		c3.3,15.5,6.6,30.9,9.9,46.4c0.5,2.5,1.3,4.8,4.3,5c3,0.2,4.1-1.9,5-4.4c2.3-7,4.7-13.9,6.9-20.9c0.6-2,1.6-2.7,3.7-2.6
		c4.2,0.1,8.5,0.2,12.8-0.1c3.5-0.2,5.5-3.8,3.5-6.4c-1-1.2-3.1-2.1-4.7-2.1c-5.3-0.3-10.6-0.1-15.9-0.1c-3.8,0-4.9,0.8-6.1,4.5
		c-1.2,3.5-2.3,6.9-3.8,11.2c-0.8-3.6-1.4-6.3-2-9.1c-2.8-12.9-5.5-25.9-8.3-38.8c-0.5-2.4-1.4-4.6-4.2-4.8c-2.6-0.3-4,1.5-4.9,3.7
		c-0.8,2.1-1.6,4.1-2.4,6.2C156.1,94.2,152.2,104,148,114.6z M184.1,186.8c0.1-12.1-6.1-21.1-15.5-23.3c-5.5-1.3-10.9-0.4-15.8,2.1
		c-3.2,1.6-5.7,1.5-8.8,0c-6.4-3-13.2-3.9-19.8-0.6c-11.9,6-15.3,24.8-6.7,35.6c7.6,9.5,17.3,16.2,28.3,21.1
		c1.5,0.7,3.7,0.7,5.2,0.1c9.4-4.1,17.8-9.7,24.9-17.1C180.9,199.4,184.4,193.6,184.1,186.8z"/>
	<path class="st2" d="M80.6,297c-26.9,0-53.8,0-80.6,0C0,198,0,99,0,0c26.9,0,53.8,0,80.6,0c-0.4,0.2-0.9,0.4-1.3,0.5
		C70.2,3.1,65,9.6,65,19.2c0,86.2,0,172.4,0.1,258.7c0,3.1,0.9,6.3,2.1,9.2C69.7,292.8,74.8,295.4,80.6,297z"/>
	<path d="M80.6,297c-5.8-1.6-10.9-4.2-13.4-10c-1.2-2.8-2.1-6.1-2.1-9.2C65,191.6,65,105.4,65,19.2c0-9.5,5.2-16.1,14.3-18.7
		c0.5-0.1,0.9-0.3,1.3-0.5c45.2,0,90.5,0,135.7,0c5.6,1.7,10.8,4.3,13.2,9.9c1.3,3.1,2.2,6.7,2.2,10c0.1,54.5,0.1,109,0.1,163.5
		c0,1.1-0.1,2.1-0.3,3.2c-0.6,2.1-2.1,3.2-4.3,3.1c-2.1-0.1-3.5-1.2-3.8-3.3c-0.2-1.3-0.2-2.7-0.2-4c0-45.7,0-91.4,0-137.2
		c0-1.2,0-2.5,0-3.9c-49.9,0-99.4,0-149.2,0c0,71.4,0,142.7,0,214.2c49.6,0,99.2,0,149.2,0c0-1.1,0-2.2,0-3.3c0-14.5,0-29,0-43.5
		c0-4.5,1.3-6.6,4.3-6.6c3-0.1,4.5,2.1,4.5,6.8c0,21.7,0,43.5,0,65.2c0,13.6-3,18.1-15.4,22.9C171.1,297,125.9,297,80.6,297z
		 M223.1,32.4c0-4,0-7.8,0-11.7c0-8.5-3.5-12-11.9-12c-41.8,0-83.7,0-125.5,0c-1,0-1.9,0-2.9,0.1c-4.2,0.3-8,2.9-8.5,7
		c-0.6,5.5-0.1,11.1-0.1,16.6C123.7,32.4,173.2,32.4,223.1,32.4z M222.9,264.7c-49.9,0-99.5,0-149.3,0c0,4.1,0,7.9,0,11.8
		c0,8.3,3.5,11.8,11.8,11.8c41.9,0,83.9,0,125.8,0c0.9,0,1.7,0,2.6,0c4.9-0.4,8.6-3.7,9-8.6C223.2,274.7,222.9,269.8,222.9,264.7z"
		/>
	<path d="M148,114.6c4.2-10.5,8.2-20.4,12.1-30.2c0.8-2.1,1.6-4.1,2.4-6.2c0.9-2.2,2.3-4,4.9-3.7c2.8,0.3,3.7,2.4,4.2,4.8
		c2.7,12.9,5.5,25.9,8.3,38.8c0.6,2.7,1.2,5.5,2,9.1c1.4-4.2,2.6-7.7,3.8-11.2c1.2-3.6,2.3-4.4,6.1-4.5c5.3,0,10.6-0.2,15.9,0.1
		c1.6,0.1,3.7,0.9,4.7,2.1c2.1,2.6,0.1,6.2-3.5,6.4c-4.2,0.2-8.5,0.2-12.8,0.1c-2.1-0.1-3,0.6-3.7,2.6c-2.2,7-4.6,13.9-6.9,20.9
		c-0.8,2.5-2,4.6-5,4.4c-3-0.2-3.8-2.4-4.3-5c-3.3-15.5-6.6-31-9.9-46.4c-0.2-0.7-0.4-1.5-0.8-2.7c-1.7,4.3-3.3,8.1-4.8,12
		c-2.6,6.5-5.2,13.1-7.8,19.6c-0.8,2.1-1.8,3.8-4.4,3.9c-2.6,0.1-3.8-1.5-4.7-3.6c-1-2-2-3.9-3.3-6.5c-0.5,1.9-0.9,3.2-1.3,4.5
		c-1.7,6.7-3.4,13.5-5.1,20.2c-0.6,2.5-2,4.2-4.8,4c-2.5-0.2-3.5-2-4.1-4.2c-2.9-10.6-5.8-21.2-8.7-31.8c-0.3-1.1-0.6-2.1-1.5-3.2
		c-1.3,3.9-2.6,7.8-3.9,11.7c-1.3,3.7-2.2,4.4-6.1,4.4c-5.3,0-10.6,0-15.9,0c-3.5,0-5.4-1.6-5.5-4.2c-0.1-2.7,2-4.5,5.6-4.5
		c3.9-0.1,7.7-0.1,11.6,0c2,0.1,2.9-0.6,3.5-2.5c2.3-7.1,4.7-14.1,7-21.2c0.8-2.4,2-4.3,4.8-4.2c2.6,0.1,3.7,2,4.3,4.4
		c2.8,10.2,5.6,20.5,8.4,30.7c0.2,0.6,0.4,1.3,0.9,2.7c1.6-6.3,3-11.7,4.3-17.2c0.3-1.1,0.3-2.5,0.9-3.3c1-1.3,2.3-3,3.6-3.1
		c1.5-0.1,3.5,1.1,4.4,2.4C144.8,107.7,146.1,110.9,148,114.6z"/>
	<path d="M184.1,186.8c0.4,6.7-3.2,12.6-8.3,17.9c-7.1,7.4-15.6,13-24.9,17.1c-1.5,0.6-3.7,0.6-5.2-0.1c-11-4.9-20.6-11.7-28.3-21.1
		c-8.7-10.8-5.2-29.6,6.7-35.6c6.7-3.4,13.4-2.5,19.8,0.6c3.2,1.5,5.7,1.7,8.8,0c4.9-2.5,10.3-3.4,15.8-2.1
		C178,165.8,184.1,174.7,184.1,186.8z M175.4,186c-0.1-0.8-0.1-1.5-0.2-2.3c-0.9-9.5-7.7-14.1-16.7-11.1c-2.4,0.8-4.6,1.9-6.8,3.2
		c-2.4,1.4-4.4,1.2-6.8,0c-2.9-1.5-5.9-2.8-9.1-3.7c-4.2-1.1-8.1-0.3-11,3.2c-4.7,5.5-4.7,14.8-0.2,20.4
		c6.1,7.5,13.9,12.8,22.4,17.1c0.7,0.4,1.9,0.3,2.6,0c8.3-4.2,16-9.4,22-16.6C174.2,193.1,175.5,189.9,175.4,186z"/>
	<path class="st2" d="M223.1,32.4c-49.9,0-99.4,0-149,0c0-5.5-0.4-11.1,0.1-16.6c0.4-4.1,4.2-6.7,8.5-7c1-0.1,1.9-0.1,2.9-0.1
		c41.8,0,83.7,0,125.5,0c8.5,0,11.9,3.4,11.9,12C223.1,24.5,223.1,28.4,223.1,32.4z M148.3,27.3c1.6,0,3.3,0.1,4.9,0
		c2.4-0.2,3.9-1.5,4.1-4c0.2-2.4-1.4-4.3-3.9-4.5c-3.3-0.2-6.7-0.2-10.1,0c-2.4,0.2-3.8,1.9-3.9,4.3c-0.1,2.3,1.7,4,4.2,4.2
		C145.2,27.4,146.8,27.3,148.3,27.3z"/>
	<path class="st2" d="M222.9,264.7c0,5.1,0.2,10-0.1,14.9c-0.3,4.9-4,8.3-9,8.6c-0.9,0.1-1.7,0-2.6,0c-41.9,0-83.9,0-125.8,0
		c-8.3,0-11.8-3.5-11.8-11.8c0-3.9,0-7.7,0-11.8C123.5,264.7,173.1,264.7,222.9,264.7z M148.5,274.4c-4.4,0-8.9,0-13.3,0
		c-3.1,0-5.1,1.8-5.1,4.3c0,2.6,2,4.3,5.1,4.3c8.8,0.1,17.6,0.1,26.3,0c3.2,0,5-1.7,5-4.4c0-2.6-1.9-4.3-5-4.3
		C157.2,274.3,152.9,274.4,148.5,274.4z"/>
	<path class="st2" d="M175.4,186c0.1,3.8-1.2,7.1-3.7,10.1c-6.1,7.3-13.7,12.4-22,16.6c-0.7,0.4-1.9,0.4-2.6,0
		c-8.5-4.3-16.3-9.6-22.4-17.1c-4.6-5.6-4.5-14.9,0.2-20.4c3-3.5,6.9-4.3,11-3.2c3.1,0.8,6.2,2.2,9.1,3.7c2.4,1.3,4.4,1.4,6.8,0
		c2.2-1.2,4.4-2.4,6.8-3.2c9-2.9,15.8,1.6,16.7,11.1C175.3,184.5,175.4,185.2,175.4,186z"/>
	<path d="M148.3,27.3c-1.5,0-3.1,0.1-4.6,0c-2.5-0.2-4.3-2-4.2-4.2c0.1-2.4,1.4-4.1,3.9-4.3c3.3-0.2,6.7-0.2,10.1,0
		c2.5,0.2,4.1,2.1,3.9,4.5c-0.2,2.5-1.7,3.8-4.1,4C151.6,27.4,149.9,27.3,148.3,27.3z"/>
	<path d="M148.5,274.4c4.3,0,8.7,0,13,0c3.2,0,5,1.7,5,4.3c0,2.6-1.9,4.3-5,4.4c-8.8,0.1-17.6,0.1-26.3,0c-3.1,0-5.1-1.8-5.1-4.3
		c0-2.6,2-4.3,5.1-4.3C139.6,274.3,144.1,274.4,148.5,274.4z"/>
</g>
</svg>
